<svg version="1.1" xmlns="http://www.w3.org/2000/svg" viewBox="0 0 911 940.8749999999999" width="911" height="940.8749999999999">
  <!-- svg-source:excalidraw -->
  
  <defs>
    <style>
      @font-face {
        font-family: "Virgil";
        src: url("https://excalidraw.com/Virgil.woff2");
      }
      @font-face {
        font-family: "Cascadia";
        src: url("https://excalidraw.com/Cascadia.woff2");
      }
    </style>
  </defs>
  <rect x="0" y="0" width="911" height="940.8749999999999" fill="#ffffff"></rect><g stroke-linecap="round" transform="translate(180.25 104.875) rotate(0 202.125 359)"><path d="M0.48 -0.38 C158.36 -1.48, 316.17 -1.83, 403.33 -0.77 M0.12 0.55 C155.53 0.04, 310.51 0.33, 403.72 0.42 M403.78 -0.56 C403.87 276.89, 404.24 552.83, 404.55 718.28 M404.45 0.01 C406.14 268.19, 406 536.54, 403.96 718.1 M405.27 718.35 C259.94 715.74, 114.71 715.89, -0.65 719.08 M404.23 718.02 C250.61 717.24, 97.96 717.09, 0.04 717.63 M0.57 718.13 C1.34 530.25, 0.67 342.01, -0.34 0.67 M-0.26 717.99 C-2.52 443.97, -2.22 169.16, -0.36 0.33" stroke="#000000" stroke-width="1" fill="none"></path></g><g stroke-linecap="round" transform="translate(293.5 180.375) rotate(0 53 34)"><path d="M0.45 1.25 C37.1 2.45, 73.69 0, 106.34 1.37 M-0.81 -0.55 C24.63 -0.61, 49.88 -0.79, 105.09 0.81 M107.3 -1.94 C107.64 25.52, 104.9 47.06, 104.33 67.42 M105.09 -0.27 C104.48 24.68, 104.49 50.57, 106.13 68.93 M107.76 67.13 C68.09 68.74, 30.32 69.72, 0.79 66.29 M106.7 68.35 C78.68 68.08, 52.26 67.22, -0.77 68.84 M1.16 66.96 C0.82 51.98, 0.58 33.57, -0.21 -0.82 M0.41 67.9 C0.39 49.21, -0.61 29.19, 0.79 -0.11" stroke="#000000" stroke-width="1" fill="none"></path></g><g transform="translate(298.5 201.875) rotate(0 48 12.5)"><text x="48" y="18" font-family="Virgil, Segoe UI Emoji" font-size="20px" fill="#000000" text-anchor="middle" style="white-space: pre;" direction="ltr">Logo</text></g><g transform="translate(287.5 140.375) rotate(0 60.5 17.5)"><text x="0" y="25" font-family="Virgil, Segoe UI Emoji" font-size="28px" fill="#000000" text-anchor="start" style="white-space: pre;" direction="ltr">WATWIT</text></g><g transform="translate(769.5 155.125) rotate(0 50.5 20)"><text x="0" y="14" font-family="Virgil, Segoe UI Emoji" font-size="16px" fill="#000000" text-anchor="start" style="white-space: pre;" direction="ltr">S'inscrire</text><text x="0" y="34" font-family="Virgil, Segoe UI Emoji" font-size="16px" fill="#000000" text-anchor="start" style="white-space: pre;" direction="ltr">Se connecter</text></g><g transform="translate(745 40.625) rotate(0 75 30)"><text x="0" y="14" font-family="Virgil, Segoe UI Emoji" font-size="16px" fill="#000000" text-anchor="start" style="white-space: pre;" direction="ltr">Accueil</text><text x="0" y="34" font-family="Virgil, Segoe UI Emoji" font-size="16px" fill="#000000" text-anchor="start" style="white-space: pre;" direction="ltr">Dernières recettes</text><text x="0" y="54" font-family="Virgil, Segoe UI Emoji" font-size="16px" fill="#000000" text-anchor="start" style="white-space: pre;" direction="ltr">Type de repas</text></g><g transform="translate(261.5 266.875) rotate(0 91 12.5)"><text x="0" y="18" font-family="Virgil, Segoe UI Emoji" font-size="20px" fill="#000000" text-anchor="start" style="white-space: pre;" direction="ltr">Et bwon appétit' !</text></g><g stroke-linecap="round" transform="translate(223 354.375) rotate(0 156.5 56)"><path d="M1.03 1.34 C99.57 -0.91, 196.8 1, 311.82 -0.66 M-0.3 -0.12 C73.48 -1.19, 147.24 -1.2, 313.56 -0.43 M314.96 -0.32 C310.82 30.19, 311.67 61.09, 311.5 111.98 M312.43 -0.42 C312.4 39.29, 314 81.46, 313.03 112.82 M312.54 111.03 C222.65 112.02, 130.33 113.6, -0.38 112.02 M313.64 111.47 C192.23 111.53, 70.65 112.24, -0.5 112.38 M1.13 111.04 C-0.09 80.12, 0 48.55, 0.92 -1.11 M-0.29 111.59 C0.38 78.47, 0.38 45.1, 0.31 -1" stroke="#000000" stroke-width="1" fill="none"></path></g><g stroke-linecap="round" transform="translate(238 365.375) rotate(0 62.5 45)"><path d="M1.06 -0.48 C38.3 1.22, 75.37 -0.08, 125.57 -0.94 M-0.55 0.02 C41.18 -0.14, 83.04 -0.98, 124.85 0.32 M123 -1.85 C124.03 25.15, 126.01 51.96, 124.95 89.5 M125.56 0.39 C124.74 27.94, 124.48 58.33, 124.73 89.03 M125.82 88.88 C95.62 90.75, 65.9 90.16, 1.06 91.41 M124.27 90.67 C83.89 88.87, 40.75 89.07, -0.63 89.09 M0.89 88.9 C-1.64 69.21, 0.5 46.44, 1.59 1.24 M0.32 89.66 C-1.58 69.3, -0.66 48.56, -0.55 0.12" stroke="#000000" stroke-width="1" fill="none"></path></g><g stroke-linecap="round" transform="translate(392.5 364.375) rotate(0 62.5 45)"><path d="M1.87 -0.21 C40.19 -0.42, 84.57 0.02, 126.86 -1.75 M-0.34 0.28 C44.02 -0.75, 86.03 0.1, 125.58 0.55 M123.67 -0.04 C123.86 25.53, 123.6 50.93, 126.77 89.19 M125.84 -0.1 C125.99 20.63, 125.71 41.93, 124.76 90.44 M124.15 91.15 C78.61 91.16, 29.42 91.44, 0.09 90.21 M124.26 89.01 C78.52 89.07, 32.94 89.32, -0.5 90.34 M-0.58 89.91 C-0.55 55.05, 0.97 17.36, 1.88 0.48 M0.14 89.43 C-0.37 72.3, 1.01 53.2, 0.63 0.18" stroke="#000000" stroke-width="1" fill="none"></path></g><g transform="translate(227.5 480.125) rotate(0 159 37.5)"><text x="0" y="18" font-family="Virgil, Segoe UI Emoji" font-size="20px" fill="#000000" text-anchor="start" style="white-space: pre;" direction="ltr">Un p'tit creux mais pas d'idée ?</text><text x="0" y="43" font-family="Virgil, Segoe UI Emoji" font-size="20px" fill="#000000" text-anchor="start" style="white-space: pre;" direction="ltr">  Indiquez ce que vous avez,</text><text x="0" y="68" font-family="Virgil, Segoe UI Emoji" font-size="20px" fill="#000000" text-anchor="start" style="white-space: pre;" direction="ltr">   et on trouve pour vous !</text></g><g stroke-linecap="round"><g transform="translate(549 434.2539938473933) rotate(0 64.22321928749795 -56.55221742656124)"><path d="M0.56 -0.86 C21.63 -19.87, 105.59 -95.53, 126.65 -114.41 M-0.6 1.31 C20.85 -17.51, 107.95 -94.08, 129.05 -113.12" stroke="#000000" stroke-width="1" fill="none"></path></g><g transform="translate(549 434.2539938473933) rotate(0 64.22321928749795 -56.55221742656124)"><path d="M113.37 -87.72 C118.65 -95.77, 123.64 -102.96, 130.53 -113.23 M115.35 -86.9 C118.81 -92.5, 122.12 -98.9, 129.79 -112.78" stroke="#000000" stroke-width="1" fill="none"></path></g><g transform="translate(549 434.2539938473933) rotate(0 64.22321928749795 -56.55221742656124)"><path d="M99.74 -103.06 C109.33 -106.28, 118.67 -108.57, 130.53 -113.23 M101.72 -102.24 C108.07 -104.52, 114.43 -107.5, 129.79 -112.78" stroke="#000000" stroke-width="1" fill="none"></path></g></g><g transform="translate(679.25 295.375) rotate(0 90 25)"><text x="0" y="18" font-family="Virgil, Segoe UI Emoji" font-size="20px" fill="#000000" text-anchor="start" style="white-space: pre;" direction="ltr">Slider de recettes</text><text x="0" y="43" font-family="Virgil, Segoe UI Emoji" font-size="20px" fill="#000000" text-anchor="start" style="white-space: pre;" direction="ltr">   au hasard</text></g><g transform="translate(259 364.875) rotate(0 39 20)"><text x="0" y="14" font-family="Virgil, Segoe UI Emoji" font-size="16px" fill="#000000" text-anchor="start" style="white-space: pre;" direction="ltr">Nom de la</text><text x="0" y="34" font-family="Virgil, Segoe UI Emoji" font-size="16px" fill="#000000" text-anchor="start" style="white-space: pre;" direction="ltr">recette</text></g><g stroke-linecap="round"><g transform="translate(234 411.0451428771863) rotate(0 -54.050938644805 -14.14814650752868)"><path d="M0.11 -0.53 C-17.94 -5.57, -89.23 -25.15, -107.17 -30.1 M-1.29 1.81 C-19.61 -3.11, -90.33 -23.73, -108.21 -28.93" stroke="#000000" stroke-width="1" fill="none"></path></g><g transform="translate(234 411.0451428771863) rotate(0 -54.050938644805 -14.14814650752868)"><path d="M-79.16 -31.19 C-91.17 -30.98, -103.19 -29.02, -107.06 -27.45 M-77.7 -30.74 C-90.25 -30.02, -101.38 -29.86, -108.85 -28.89" stroke="#000000" stroke-width="1" fill="none"></path></g><g transform="translate(234 411.0451428771863) rotate(0 -54.050938644805 -14.14814650752868)"><path d="M-84.89 -11.49 C-94.67 -19.01, -104.44 -24.79, -107.06 -27.45 M-83.43 -11.03 C-93.53 -18.22, -102.38 -25.92, -108.85 -28.89" stroke="#000000" stroke-width="1" fill="none"></path></g></g><g transform="translate(59 352.375) rotate(0 29.5 20)"><text x="0" y="14" font-family="Virgil, Segoe UI Emoji" font-size="16px" fill="#000000" text-anchor="start" style="white-space: pre;" direction="ltr">Image</text><text x="0" y="34" font-family="Virgil, Segoe UI Emoji" font-size="16px" fill="#000000" text-anchor="start" style="white-space: pre;" direction="ltr">du plat</text></g><g transform="translate(259.75 320.875) rotate(0 115.5 10)"><text x="0" y="14" font-family="Virgil, Segoe UI Emoji" font-size="16px" fill="#000000" text-anchor="start" style="white-space: pre;" direction="ltr">Quelques idées de recettes :</text></g><g stroke-linecap="round" transform="translate(250 579.375) rotate(0 132 15)"><path d="M-1.21 0.58 C57.65 2.35, 114.01 0.94, 264.33 0.01 M-0.55 0.71 C81.68 -0.71, 162.35 0.36, 264.62 -0.6 M262.01 -1.01 C263.61 9.06, 263.24 22.29, 264.52 31.3 M263.76 -0.82 C264.56 7.85, 263.6 13.46, 264.4 30.47 M263.98 31.13 C178.16 28.89, 95.34 27.13, 1.07 31.18 M263.6 30.12 C166.59 27.94, 67.95 28.03, 0.55 29.37 M0.92 31.36 C1.48 25.05, -0.07 16.1, 0.91 0.02 M0.39 30.36 C0.55 22.08, -0.13 12.03, 0.93 0.34" stroke="#000000" stroke-width="1" fill="none"></path></g><g stroke-linecap="round" transform="translate(249.5 648.875) rotate(0 132 15)"><path d="M-0.96 -0.49 C88.07 1.58, 175.43 -0.19, 263.02 0.33 M-0.28 0.1 C70.38 -0.66, 140.46 -1.63, 264.63 -0.48 M263.96 -0.81 C262.46 8.29, 262.61 16.68, 262.08 29.99 M263.03 0.62 C263.63 12.58, 263.22 22.62, 263.96 29.27 M264.08 31.4 C163.59 29.5, 67.26 29.15, -1.49 31.34 M263.22 29.57 C179.7 31.07, 95.31 31.88, -0.46 30.22 M-1.05 31.36 C-1.85 19.2, -0.1 9.02, -0.77 0.6 M0.33 29.31 C-0.87 22.84, -0.29 16.5, 0.96 -0.25" stroke="#000000" stroke-width="1" fill="none"></path></g><g transform="translate(255 584.375) rotate(0 127 10)"><text x="127" y="14" font-family="Virgil, Segoe UI Emoji" font-size="16px" fill="#000000" text-anchor="middle" style="white-space: pre;" direction="ltr">Fruits</text></g><g transform="translate(254.5 653.875) rotate(0 127 10)"><text x="127" y="14" font-family="Virgil, Segoe UI Emoji" font-size="16px" fill="#000000" text-anchor="middle" style="white-space: pre;" direction="ltr">Poissons</text></g><g stroke-linecap="round" transform="translate(253.5 724.375) rotate(0 128.5 15)"><path d="M-0.24 -0.51 C73.78 -1.47, 146.49 -2.97, 257.61 1.14 M0.03 0.17 C77.97 -0.78, 155.53 -0.22, 257.49 -0.51 M256.08 -1.99 C255.35 8.51, 258.18 22.82, 255.12 31.7 M256.87 0.01 C256.7 7.21, 256.32 14.95, 256.84 29.77 M258.01 31.27 C165.06 31.53, 71.71 30.42, 0.18 29.9 M256.93 30.27 C160.82 28.71, 64.87 28.21, -0.55 29.76 M-1.1 30.74 C0.49 21.78, -1.52 12.9, -0.51 -1.68 M0.15 29.45 C-0.97 17.34, 0.67 6.1, -0.44 -0.33" stroke="#000000" stroke-width="1" fill="none"></path></g><g transform="translate(258.5 729.375) rotate(0 123.5 10)"><text x="123.5" y="14" font-family="Virgil, Segoe UI Emoji" font-size="16px" fill="#000000" text-anchor="middle" style="white-space: pre;" direction="ltr">Quel type ?</text></g><g stroke-linecap="round"><g transform="translate(214.59165573438815 615.9718329309097) rotate(0 -58.3598725519052 -18.1573541327258)"><path d="M-0.65 -0.31 C-20.18 -6.3, -97.6 -30.18, -117.37 -36.01 M1.21 -1.51 C-18.39 -7.32, -98.22 -28.63, -117.93 -34.62" stroke="#000000" stroke-width="1" fill="none"></path></g><g transform="translate(214.59165573438815 615.9718329309097) rotate(0 -58.3598725519052 -18.1573541327258)"><path d="M-88.52 -35.57 C-96.93 -38.31, -104.21 -35.41, -116.86 -34.82 M-88.25 -36.8 C-97.81 -36.68, -108.5 -36.38, -117.48 -33.72" stroke="#000000" stroke-width="1" fill="none"></path></g><g transform="translate(214.59165573438815 615.9718329309097) rotate(0 -58.3598725519052 -18.1573541327258)"><path d="M-94.11 -15.83 C-100.93 -24.12, -106.63 -26.8, -116.86 -34.82 M-93.84 -17.05 C-101.3 -23.66, -110.07 -30.12, -117.48 -33.72" stroke="#000000" stroke-width="1" fill="none"></path></g></g><g transform="translate(10 559.375) rotate(0 41.5 20)"><text x="0" y="14" font-family="Virgil, Segoe UI Emoji" font-size="16px" fill="#000000" text-anchor="start" style="white-space: pre;" direction="ltr">Diverses</text><text x="0" y="34" font-family="Virgil, Segoe UI Emoji" font-size="16px" fill="#000000" text-anchor="start" style="white-space: pre;" direction="ltr">catégories</text></g><g stroke-linecap="round" transform="translate(241 564.375) rotate(0 146.5 120.5)"><path d="M0.58 0.6 C105.82 2.49, 208.96 0.68, 294.41 -0.66 M-0.52 0.46 C72.75 -1.22, 145.59 -1.52, 293.03 -0.54 M292.67 0.41 C295.43 62.89, 295.21 125.34, 293.35 240.8 M292.69 0.26 C291.76 76.29, 292.65 152.9, 292.89 241.76 M294.05 240.73 C181.98 240.01, 69.96 240.26, -1.02 239.59 M293.15 241.05 C232.65 238.42, 171.18 239.56, 0.24 241.01 M0.05 239.91 C0.05 182.4, 1.52 124.35, -1.48 0.33 M0.15 240.54 C0.87 144.92, 0.48 48.53, -0.23 -0.28" stroke="#000000" stroke-width="1" fill="none"></path></g><g stroke-linecap="round"><g transform="translate(522.25 592.0860558403984) rotate(0 52.24784050415269 -28.98409145063664)"><path d="M0.94 0.78 C17.8 -8.9, 85.15 -48.78, 102.22 -58.75 M-0.03 0.15 C17.13 -9.32, 87.39 -47.79, 104.53 -57.5" stroke="#000000" stroke-width="1" fill="none"></path></g><g transform="translate(522.25 592.0860558403984) rotate(0 52.24784050415269 -28.98409145063664)"><path d="M86.17 -36.13 C91.67 -43.15, 98.82 -50.65, 102.6 -56.08 M84.86 -35.61 C91.18 -42.13, 97.55 -48.21, 104.67 -56.7" stroke="#000000" stroke-width="1" fill="none"></path></g><g transform="translate(522.25 592.0860558403984) rotate(0 52.24784050415269 -28.98409145063664)"><path d="M76.21 -54.07 C85.46 -54.25, 96.45 -54.82, 102.6 -56.08 M74.9 -53.55 C84.19 -54.7, 93.55 -55.4, 104.67 -56.7" stroke="#000000" stroke-width="1" fill="none"></path></g></g><g transform="translate(648 460.375) rotate(0 66.5 30)"><text x="0" y="14" font-family="Virgil, Segoe UI Emoji" font-size="16px" fill="#000000" text-anchor="start" style="white-space: pre;" direction="ltr">Menu burger</text><text x="0" y="34" font-family="Virgil, Segoe UI Emoji" font-size="16px" fill="#000000" text-anchor="start" style="white-space: pre;" direction="ltr">à choix multiples,</text><text x="0" y="54" font-family="Virgil, Segoe UI Emoji" font-size="16px" fill="#000000" text-anchor="start" style="white-space: pre;" direction="ltr">comme suit :</text></g><g transform="translate(343.75 775.375) rotate(0 42 10)"><text x="0" y="14" font-family="Virgil, Segoe UI Emoji" font-size="16px" fill="#000000" text-anchor="start" style="white-space: pre;" direction="ltr">Rechercher</text></g><g stroke-linecap="round"><g transform="translate(436.75 781.8476657630187) rotate(0 109.0782688650815 43.216607386914745)"><path d="M0.71 -0.16 C37.22 14.38, 182.21 71.84, 218.53 86.26 M-0.38 -1.29 C36.07 13.53, 181.43 72.9, 217.87 87.73" stroke="#000000" stroke-width="1" fill="none"></path></g><g transform="translate(436.75 781.8476657630187) rotate(0 109.0782688650815 43.216607386914745)"><path d="M187.62 87.47 C195.3 87.8, 203.14 86.68, 216.75 86.07 M187.47 87.46 C198.78 86.35, 209.53 86.83, 217.8 87.16" stroke="#000000" stroke-width="1" fill="none"></path></g><g transform="translate(436.75 781.8476657630187) rotate(0 109.0782688650815 43.216607386914745)"><path d="M195.37 68.47 C200.91 73.69, 206.77 77.41, 216.75 86.07 M195.22 68.46 C203.65 74.29, 211.56 81.72, 217.8 87.16" stroke="#000000" stroke-width="1" fill="none"></path></g></g><g transform="translate(667.5 850.8749999999999) rotate(0 83.5 40)"><text x="0" y="14" font-family="Virgil, Segoe UI Emoji" font-size="16px" fill="#000000" text-anchor="start" style="white-space: pre;" direction="ltr">Bouton initiant</text><text x="0" y="34" font-family="Virgil, Segoe UI Emoji" font-size="16px" fill="#000000" text-anchor="start" style="white-space: pre;" direction="ltr">la recherche en</text><text x="0" y="54" font-family="Virgil, Segoe UI Emoji" font-size="16px" fill="#000000" text-anchor="start" style="white-space: pre;" direction="ltr">fonction des produits</text><text x="0" y="74" font-family="Virgil, Segoe UI Emoji" font-size="16px" fill="#000000" text-anchor="start" style="white-space: pre;" direction="ltr">sélectionnés</text></g><g stroke-linecap="round" transform="translate(648 533.375) rotate(0 119.875 109.5)"><path d="M1.1 -0.46 C48.48 0.17, 100.36 -1.3, 239.21 -1.26 M0.16 0.82 C77.08 0.94, 152.9 1.05, 240.5 0.55 M238.05 0.63 C239.47 63.67, 238.14 130.42, 239.93 218.97 M240.18 0.28 C239.31 86.64, 238.86 173.74, 240.07 219.42 M240.95 220.3 C155.25 218.92, 68.93 218.5, -0.06 217.86 M239.73 219.61 C185.84 218.53, 130.82 219.03, 0.63 219.21 M-1.11 220.69 C-0.81 165.07, -1.36 112.98, 0.19 -0.53 M-0.31 219.45 C0.96 159.06, 0.97 100.22, 0.21 -0.09" stroke="#000000" stroke-width="1" fill="none"></path></g><g transform="translate(736.5 542.875) rotate(0 34.5 10)"><text x="0" y="14" font-family="Virgil, Segoe UI Emoji" font-size="16px" fill="#000000" text-anchor="start" style="white-space: pre;" direction="ltr">Viandes :</text></g><g stroke-linecap="round" transform="translate(662 583.375) rotate(0 6 6)"><path d="M0.62 -1.16 C1.89 -1.11, 5.29 0.34, 11.87 0.49 M-0.55 0.51 C3.12 -0.29, 4.66 0.62, 12.03 0.02 M12.19 -0.15 C13 2.58, 11.26 6.84, 12.23 12.52 M11.51 0.37 C11.32 3.34, 12.18 6.41, 11.73 12.12 M11.44 12.46 C6.98 13.12, 1.86 10.99, 0.05 11.18 M11.48 11.52 C7.71 12.29, 3.77 12.45, -0.32 11.8 M-1.07 12.05 C-1.13 7.45, 0.13 3.74, -0.51 -0.51 M0.23 12.39 C-0.04 9.17, 0.37 7.42, 0.57 0.3" stroke="#000000" stroke-width="1" fill="none"></path></g><g stroke-linecap="round" transform="translate(663 620.375) rotate(0 6 6)"><path d="M-0.07 0.6 C1.95 -0.43, 5.48 1.11, 12.88 0.06 M0.56 -0.48 C2.54 0.07, 5.68 0.16, 12.55 0.31 M12.46 -1.11 C12.69 1.91, 11.5 5.88, 12.81 12.82 M11.9 0.1 C12.23 2.27, 11.75 4.49, 11.66 11.6 M11.27 12.59 C8.64 13.11, 4.48 11.91, -0.97 13.15 M12.49 11.6 C9.42 11.58, 7.13 11.43, -0.42 11.55 M0.41 12.75 C-0.58 9.74, 0.7 6.56, 0.57 0.77 M-0.11 11.94 C0.14 7.44, 0.45 3.49, -0.55 0.4" stroke="#000000" stroke-width="1" fill="none"></path></g><g stroke-linecap="round" transform="translate(665 658.375) rotate(0 6 6)"><path d="M-1.13 -0.69 C3.23 0.51, 8.86 -0.16, 11.27 0.59 M-0.03 -0.49 C4.87 -0.61, 8.92 -0.34, 12.49 -0.4 M10.97 -0.84 C11.03 3.13, 12.04 6.87, 12.41 12.75 M12.57 0.28 C12.49 3.42, 11.86 5.88, 11.89 11.94 M12.5 10.9 C9.01 11.19, 3.24 11.57, 0.61 11.3 M12.46 11.58 C9.27 11.57, 7.08 12.22, 0.04 12.18 M-0.93 13.09 C-0.07 7.83, 0.54 4.78, 0.29 0.86 M-0.43 12.12 C-0.62 7.75, -0.64 4.84, -0.09 -0.34" stroke="#000000" stroke-width="1" fill="none"></path></g><g stroke-linecap="round" transform="translate(667 700.375) rotate(0 6 6)"><path d="M-0.31 0.11 C2.55 0.5, 5.89 -0.48, 13.03 0.71 M0.39 -0.25 C4.57 -0.19, 9.43 0.02, 11.82 0.4 M11.11 -1.18 C11.38 4.71, 11.19 7.27, 11.51 13.04 M11.46 0.43 C12.03 4.56, 12.09 9.31, 11.75 12.23 M11.97 12.49 C10.37 12.27, 7.52 12.09, 1.01 12.54 M11.45 11.47 C9.51 11.81, 6.2 12.16, 0.07 12.51 M-0.28 11.97 C0.49 9.17, 0.05 6.37, -0.64 -0.2 M-0.15 11.64 C-0.16 7.48, -0.15 2.66, -0.27 -0.44" stroke="#000000" stroke-width="1" fill="none"></path></g><g transform="translate(691 580.375) rotate(0 26.5 10)"><text x="0" y="14" font-family="Virgil, Segoe UI Emoji" font-size="16px" fill="#000000" text-anchor="start" style="white-space: pre;" direction="ltr">Choix 1</text></g><g transform="translate(692.5 620.375) rotate(0 30 10)"><text x="0" y="14" font-family="Virgil, Segoe UI Emoji" font-size="16px" fill="#000000" text-anchor="start" style="white-space: pre;" direction="ltr">Choix 2</text></g><g transform="translate(696.5 656.375) rotate(0 29.5 10)"><text x="0" y="14" font-family="Virgil, Segoe UI Emoji" font-size="16px" fill="#000000" text-anchor="start" style="white-space: pre;" direction="ltr">Choix 3</text></g><g transform="translate(699.5 698.375) rotate(0 29.5 10)"><text x="0" y="14" font-family="Virgil, Segoe UI Emoji" font-size="16px" fill="#000000" text-anchor="start" style="white-space: pre;" direction="ltr">Choix 4</text></g><g stroke-linecap="round" transform="translate(775.75 584.375) rotate(0 6 6)"><path d="M-0.47 1.13 C2.96 0.45, 8.05 -1.18, 12.98 0.08 M-0.53 0.33 C4.81 0.11, 9.21 -0.2, 12.44 0.03 M12.8 0.24 C11.05 2.26, 11.96 7.17, 12.93 13.09 M12.27 -0.3 C11.98 3.68, 11.51 7.78, 11.69 12.26 M12.96 11.27 C8.57 11.52, 6.36 12.94, -0.5 11.77 M11.83 11.61 C9.07 12.5, 6.49 11.53, 0.56 11.57 M0.02 12.72 C0.9 7.75, -0.37 4.27, 0.68 0.44 M0.17 11.69 C0.07 9.09, 0.63 6.4, 0.12 0.53" stroke="#000000" stroke-width="1" fill="none"></path></g><g stroke-linecap="round" transform="translate(776.75 621.375) rotate(0 6 6)"><path d="M1.13 -0.57 C3.2 1.04, 4.22 1.03, 12.08 0.8 M0.33 0.41 C4.54 0.51, 8.68 0.54, 12.03 -0.29 M12.24 -1.06 C11.14 4.55, 13.02 10.33, 13.09 12.4 M11.7 0.03 C11.69 2.74, 11.79 6.06, 12.26 11.6 M11.27 11.37 C8.42 12.05, 6.63 11.6, -0.23 10.98 M11.61 11.64 C9.08 11.61, 4.6 12.52, -0.43 12.33 M0.72 12.86 C-0.07 8.37, 0.71 6.23, 0.44 -0.64 M-0.31 12.02 C0.15 9.44, 0.42 5.82, 0.53 0.2" stroke="#000000" stroke-width="1" fill="none"></path></g><g stroke-linecap="round" transform="translate(778.75 659.375) rotate(0 6 6)"><path d="M-0.57 0.56 C5.72 -1.18, 10.45 -0.03, 12.8 0.84 M0.41 0.09 C3.81 -0.28, 7.27 -0.03, 11.71 0.55 M10.94 -0.77 C11.93 3.81, 13.01 6.48, 12.4 11.58 M12.03 -0.33 C11.61 3.6, 11.75 7.92, 11.6 11.8 M11.37 11.63 C9.44 12.97, 6.47 11.7, -1.02 11.9 M11.64 12.58 C8.8 11.53, 6.86 11.49, 0.33 11.81 M0.86 12.02 C-0.41 8.26, 0.68 3.34, -0.64 -0.45 M0.02 12.05 C0.55 9.76, 0.09 7.44, 0.2 0.12" stroke="#000000" stroke-width="1" fill="none"></path></g><g stroke-linecap="round" transform="translate(780.75 701.375) rotate(0 6 6)"><path d="M0.56 0.99 C2.07 1.04, 6.35 0.86, 12.84 -0.18 M0.09 0.4 C2.32 0.35, 5.1 -0.37, 12.55 -0.45 M11.23 -0.15 C13.14 5.33, 13.11 9.21, 11.58 12.23 M11.67 -0.45 C11.71 3.83, 12.2 7.87, 11.8 11.46 M11.63 11.96 C8.49 11.44, 2.66 10.91, -0.1 11.25 M12.58 11.64 C8.34 12.49, 5.04 12.26, -0.19 12.47 M0.02 11.59 C0.73 9.06, 0.36 4.11, -0.45 -1.05 M0.05 12.59 C0.37 8.17, 0.6 4.31, 0.12 0.08" stroke="#000000" stroke-width="1" fill="none"></path></g><g transform="translate(804.75 581.375) rotate(0 29 10)"><text x="0" y="14" font-family="Virgil, Segoe UI Emoji" font-size="16px" fill="#000000" text-anchor="start" style="white-space: pre;" direction="ltr">Choix 5</text></g><g transform="translate(806.25 621.375) rotate(0 29.5 10)"><text x="0" y="14" font-family="Virgil, Segoe UI Emoji" font-size="16px" fill="#000000" text-anchor="start" style="white-space: pre;" direction="ltr">Choix 6</text></g><g transform="translate(810.25 657.375) rotate(0 28.5 10)"><text x="0" y="14" font-family="Virgil, Segoe UI Emoji" font-size="16px" fill="#000000" text-anchor="start" style="white-space: pre;" direction="ltr">Choix 7</text></g><g transform="translate(813.25 699.375) rotate(0 30.5 10)"><text x="0" y="14" font-family="Virgil, Segoe UI Emoji" font-size="16px" fill="#000000" text-anchor="start" style="white-space: pre;" direction="ltr">Choix 8</text></g><g stroke-linecap="round"><g transform="translate(728.5 570.125) rotate(0 44.31945635899899 0.1944396353574689)"><path d="M-1 0.17 C14.07 0.4, 74.29 1.21, 89.64 1.18 M0.68 -0.78 C15.62 -0.85, 73.46 -0.67, 88.5 -0.32" stroke="#000000" stroke-width="1" fill="none"></path></g></g><g stroke-linecap="round" transform="translate(479.75 168.75) rotate(0 25.625 21.25)"><path d="M0.06 0.42 C14.02 -1.72, 24.82 1.81, 50.22 0.93 M-0.75 -0.15 C17.43 -0.25, 32.91 1.05, 51.47 -0.62 M49.29 -0.28 C50.35 11.11, 52.08 23.69, 50.95 42.05 M52 -0.57 C50.91 14.93, 52.06 30.6, 51.63 42.88 M52 43.34 C32.07 41.13, 12.58 41.8, -1.08 41.9 M52.05 43.42 C37.98 41.7, 24.18 41.84, 0.46 41.58 M0.37 43.13 C1.82 35.29, -0.81 23.96, 1.49 0.19 M-0.34 42.43 C-0.14 26.57, -1.04 12.24, 0.45 -0.94" stroke="#000000" stroke-width="1" fill="none"></path></g><g stroke-linecap="round"><g transform="translate(487.25 178.75) rotate(0 14.522837575706603 -0.03454448401373611)"><path d="M0 -1.07 C5.04 -1.15, 25.31 -0.88, 30.51 -0.58 M-1.46 0.98 C3.44 1.06, 24.42 1.02, 29.83 0.66" stroke="#000000" stroke-width="1" fill="none"></path></g></g><g stroke-linecap="round"><g transform="translate(488.5 191.25) rotate(0 14.804849299555656 0.1346911012770704)"><path d="M-0.18 -0.91 C4.86 -1.01, 24.11 -0.9, 29.11 -0.86 M-1.74 1.22 C3.78 1.29, 26.23 0.38, 31.35 0.22" stroke="#000000" stroke-width="1" fill="none"></path></g></g><g stroke-linecap="round"><g transform="translate(487.25 200) rotate(0 15.463951133592047 0.5752832461303683)"><path d="M0.8 -0.67 C5.65 -0.61, 24.19 0.06, 28.99 0.15 M-0.24 1.59 C4.99 1.89, 26.36 1.84, 31.17 1.76" stroke="#000000" stroke-width="1" fill="none"></path></g></g><g stroke-linecap="round"><g transform="translate(543.5 196.16660007189944) rotate(0 88.12277135019662 -49.311196877965614)"><path d="M0.57 -0.53 C30 -16.96, 147.45 -81.91, 176.84 -98.43 M-0.59 1.8 C28.71 -15.02, 146.69 -83.65, 176.19 -100.43" stroke="#000000" stroke-width="1" fill="none"></path></g><g transform="translate(543.5 196.16660007189944) rotate(0 88.12277135019662 -49.311196877965614)"><path d="M156 -76.49 C163.48 -83.95, 167.7 -93.61, 177.3 -102.18 M157.43 -78.44 C161.16 -82.79, 166.69 -88.63, 176.64 -100.73" stroke="#000000" stroke-width="1" fill="none"></path></g><g transform="translate(543.5 196.16660007189944) rotate(0 88.12277135019662 -49.311196877965614)"><path d="M145.76 -94.27 C156.56 -96.05, 164.08 -99.97, 177.3 -102.18 M147.19 -96.23 C153.48 -95.91, 161.65 -97.15, 176.64 -100.73" stroke="#000000" stroke-width="1" fill="none"></path></g></g><g stroke-linecap="round" transform="translate(733.5 10) rotate(0 83.75 106.25)"><path d="M1.43 0.76 C35.26 1.55, 68.57 0.84, 167.91 -0.24 M-0.43 -0.42 C47.71 -0.68, 94.69 0.48, 166.86 0.2 M167.46 0.3 C168.83 61.52, 168.21 121.57, 165.93 212.52 M166.91 0.51 C165.93 65.38, 166.18 132.04, 166.64 212.65 M165.55 211.61 C129.98 213.9, 95.13 216.11, 1.4 213.4 M167.65 213.41 C115.48 210.33, 62.24 209.97, 0.09 212.02 M-1.15 213.57 C-1.03 131.1, -0.76 49.72, 0.73 0.09 M0.29 212.61 C-0.78 134.84, -0.16 55.99, 0.27 0.11" stroke="#000000" stroke-width="1" fill="none"></path></g><g stroke-linecap="round"><g transform="translate(744.75 136.25) rotate(0 67.96572981420434 2.4461141354683775)"><path d="M0.56 1.1 C23.24 1.4, 113.94 2.26, 136.54 2.65 M-0.61 0.63 C21.91 1.07, 113.08 4.11, 135.74 4.26" stroke="#000000" stroke-width="1" fill="none"></path></g></g></svg>