<svg version="1.1" xmlns="http://www.w3.org/2000/svg" viewBox="0 0 1329 876.0000000000001" width="1329" height="876.0000000000001">
  <!-- svg-source:excalidraw -->
  
  <defs>
    <style>
      @font-face {
        font-family: "Virgil";
        src: url("https://excalidraw.com/Virgil.woff2");
      }
      @font-face {
        font-family: "Cascadia";
        src: url("https://excalidraw.com/Cascadia.woff2");
      }
    </style>
  </defs>
  <rect x="0" y="0" width="1329" height="876.0000000000001" fill="#ffffff"></rect><g stroke-linecap="round" transform="translate(184 10) rotate(0 349 359)"><path d="M0.34 -0.27 C273.64 -2.12, 546.89 -2.37, 697.34 -0.55 M0.09 0.39 C268.3 0.28, 536.19 0.48, 697.62 0.3 M697.53 -0.56 C697.62 276.89, 697.99 552.83, 698.3 718.28 M698.2 0.01 C699.89 268.19, 699.75 536.54, 697.71 718.1 M698.73 718.25 C448.62 715.47, 198.58 715.58, -0.46 718.77 M697.99 718.02 C432.98 717.16, 168.67 717.05, 0.03 717.74 M0.57 718.13 C1.34 530.25, 0.67 342.01, -0.34 0.67 M-0.26 717.99 C-2.52 443.97, -2.22 169.16, -0.36 0.33" stroke="#000000" stroke-width="1" fill="none"></path></g><g stroke-linecap="round" transform="translate(476 63) rotate(0 53 34)"><path d="M0.45 1.25 C37.1 2.45, 73.69 0, 106.34 1.37 M-0.81 -0.55 C24.63 -0.61, 49.88 -0.79, 105.09 0.81 M107.3 -1.94 C107.64 25.52, 104.9 47.06, 104.33 67.42 M105.09 -0.27 C104.48 24.68, 104.49 50.57, 106.13 68.93 M107.76 67.13 C68.09 68.74, 30.32 69.72, 0.79 66.29 M106.7 68.35 C78.68 68.08, 52.26 67.22, -0.77 68.84 M1.16 66.96 C0.82 51.98, 0.58 33.57, -0.21 -0.82 M0.41 67.9 C0.39 49.21, -0.61 29.19, 0.79 -0.11" stroke="#000000" stroke-width="1" fill="none"></path></g><g transform="translate(481 84.5) rotate(0 48 12.5)"><text x="48" y="18" font-family="Virgil, Segoe UI Emoji" font-size="20px" fill="#000000" text-anchor="middle" style="white-space: pre;" direction="ltr">Logo</text></g><g transform="translate(470 23) rotate(0 60.5 17.5)"><text x="0" y="25" font-family="Virgil, Segoe UI Emoji" font-size="28px" fill="#000000" text-anchor="start" style="white-space: pre;" direction="ltr">WATWIT</text></g><g stroke-linecap="round" transform="translate(218 194) rotate(0 314 12.5)"><path d="M0.27 0.1 C224.3 -0.69, 449.13 -0.72, 628.23 -0.43 M0.26 -0.17 C214.11 -1.14, 428.13 -1.19, 627.96 -0.35 M627.21 -0.23 C629.68 7.04, 627.96 14.93, 629.91 26.25 M628.94 0.44 C628.31 7.8, 628.25 15.02, 627.44 25.22 M628.38 25.04 C380.04 23.41, 132.81 23.28, 0.07 24.27 M628.36 25.11 C470.52 23.03, 312.25 22.79, 0.05 24.92 M1.59 26.89 C0.13 16.47, 1.81 6.05, 1.49 -0.45 M0.61 25.22 C-0.28 15.31, -0.45 4.47, 0.83 -0.15" stroke="#000000" stroke-width="1" fill="none"></path></g><g transform="translate(647 196.5) rotate(0 95.5 10)"><text x="0" y="14" font-family="Virgil, Segoe UI Emoji" font-size="16px" fill="#000000" text-anchor="start" style="white-space: pre;" direction="ltr">S'inscrire - Se connecter</text></g><g transform="translate(245 197) rotate(0 181 10)"><text x="0" y="14" font-family="Virgil, Segoe UI Emoji" font-size="16px" fill="#000000" text-anchor="start" style="white-space: pre;" direction="ltr">Accueil - Dernières recettes - Type de repas</text></g><g stroke-linecap="round"><g transform="translate(632 192) rotate(0 0.9890219112253362 13.168057652562851)"><path d="M-0.44 -0.73 C-0.3 3.63, 0.07 22.75, 0.15 27.07 M1.53 1.5 C2.11 5.47, 2.26 21.41, 2.42 25.5" stroke="#000000" stroke-width="1" fill="none"></path></g></g><g transform="translate(444 149.5) rotate(0 91 12.5)"><text x="0" y="18" font-family="Virgil, Segoe UI Emoji" font-size="20px" fill="#000000" text-anchor="start" style="white-space: pre;" direction="ltr">Et bwon appétit' !</text></g><g stroke-linecap="round" transform="translate(223 257) rotate(0 314 56)"><path d="M0.58 0.75 C198.84 -0.56, 396.37 0.51, 627.34 -0.37 M-0.17 -0.07 C147.92 -1.46, 295.99 -1.47, 628.32 -0.24 M629.96 -0.32 C625.82 30.19, 626.67 61.09, 626.5 111.98 M627.43 -0.42 C627.4 39.29, 629 81.46, 628.03 112.82 M627.74 111.46 C445.82 112.41, 262.54 113.3, -0.22 112.01 M628.36 111.7 C385.12 111.54, 141.78 111.94, -0.28 112.21 M1.13 111.04 C-0.09 80.12, 0 48.55, 0.92 -1.11 M-0.29 111.59 C0.38 78.47, 0.38 45.1, 0.31 -1" stroke="#000000" stroke-width="1" fill="none"></path></g><g stroke-linecap="round" transform="translate(238 268) rotate(0 62.5 45)"><path d="M1.06 -0.48 C38.3 1.22, 75.37 -0.08, 125.57 -0.94 M-0.55 0.02 C41.18 -0.14, 83.04 -0.98, 124.85 0.32 M123 -1.85 C124.03 25.15, 126.01 51.96, 124.95 89.5 M125.56 0.39 C124.74 27.94, 124.48 58.33, 124.73 89.03 M125.82 88.88 C95.62 90.75, 65.9 90.16, 1.06 91.41 M124.27 90.67 C83.89 88.87, 40.75 89.07, -0.63 89.09 M0.89 88.9 C-1.64 69.21, 0.5 46.44, 1.59 1.24 M0.32 89.66 C-1.58 69.3, -0.66 48.56, -0.55 0.12" stroke="#000000" stroke-width="1" fill="none"></path></g><g stroke-linecap="round" transform="translate(707.5 266) rotate(0 62.5 45)"><path d="M-1.28 -0.38 C39.96 2.02, 74.95 -0.68, 125.46 0.33 M-0.71 0.99 C30.47 -0.45, 61.42 -1.46, 124.95 0.24 M124.98 -1.43 C124.75 25.98, 124.34 51.66, 124.57 89.55 M125.66 -0.75 C124.83 19.18, 124.48 38.35, 125.3 89 M124.01 88.63 C96.02 89.23, 63.41 91.28, 1.6 90.12 M125.94 89.9 C82.67 89.54, 42.44 89.76, 0.93 89.13 M-0.68 90.57 C1.24 58.97, -1.21 29.54, 1.16 1.11 M-0.67 89.98 C-0.39 65.49, -0.52 40.9, 0.88 -0.4" stroke="#000000" stroke-width="1" fill="none"></path></g><g stroke-linecap="round" transform="translate(392.5 267) rotate(0 62.5 45)"><path d="M1.87 -0.21 C40.19 -0.42, 84.57 0.02, 126.86 -1.75 M-0.34 0.28 C44.02 -0.75, 86.03 0.1, 125.58 0.55 M123.67 -0.04 C123.86 25.53, 123.6 50.93, 126.77 89.19 M125.84 -0.1 C125.99 20.63, 125.71 41.93, 124.76 90.44 M124.15 91.15 C78.61 91.16, 29.42 91.44, 0.09 90.21 M124.26 89.01 C78.52 89.07, 32.94 89.32, -0.5 90.34 M-0.58 89.91 C-0.55 55.05, 0.97 17.36, 1.88 0.48 M0.14 89.43 C-0.37 72.3, 1.01 53.2, 0.63 0.18" stroke="#000000" stroke-width="1" fill="none"></path></g><g stroke-linecap="round" transform="translate(551.5 266) rotate(0 62.5 45)"><path d="M-0.37 1.93 C42.5 -0.4, 88.52 0.34, 126.87 -1.55 M-0.96 0.4 C43.17 0.06, 87.64 1.26, 125.1 -0.36 M123.02 0.13 C123.37 23.64, 125.57 49.47, 126.3 89.9 M125.01 0.58 C125.58 26.83, 125.51 54.66, 124.17 89.93 M126.45 89.43 C95.54 88.72, 65.86 89.57, -0.15 89.11 M125.31 89.97 C96.33 91.44, 68.59 90.56, -0.13 90.99 M-1.22 89.05 C-0.1 56.51, 1.22 22.96, -0.32 -0.46 M-0.79 89.12 C0.16 69.33, -0.53 47.61, -0.1 -0.33" stroke="#000000" stroke-width="1" fill="none"></path></g><g transform="translate(375 384) rotate(0 159 37.5)"><text x="0" y="18" font-family="Virgil, Segoe UI Emoji" font-size="20px" fill="#000000" text-anchor="start" style="white-space: pre;" direction="ltr">Un p'tit creux mais pas d'idée ?</text><text x="0" y="43" font-family="Virgil, Segoe UI Emoji" font-size="20px" fill="#000000" text-anchor="start" style="white-space: pre;" direction="ltr">  Indiquez ce que vous avez,</text><text x="0" y="68" font-family="Virgil, Segoe UI Emoji" font-size="20px" fill="#000000" text-anchor="start" style="white-space: pre;" direction="ltr">   et on trouve pour vous !</text></g><g stroke-linecap="round"><g transform="translate(864 308) rotate(0 51.098219287497955 -61.07490289462265)"><path d="M0.56 -0.86 C17.26 -21.38, 83.72 -103.07, 100.4 -123.46 M-0.6 1.31 C16.47 -19.02, 86.08 -101.61, 102.8 -122.16" stroke="#000000" stroke-width="1" fill="none"></path></g><g transform="translate(864 308) rotate(0 51.098219287497955 -61.07490289462265)"><path d="M91.26 -94.92 C95.23 -103.54, 98.89 -111.32, 104.28 -122.27 M93.24 -94.1 C95.79 -100.08, 98.18 -106.89, 103.54 -121.83" stroke="#000000" stroke-width="1" fill="none"></path></g><g transform="translate(864 308) rotate(0 51.098219287497955 -61.07490289462265)"><path d="M75.47 -108.03 C84.44 -112.54, 93.15 -116.13, 104.28 -122.27 M77.46 -107.21 C83.4 -110.39, 89.32 -114.27, 103.54 -121.83" stroke="#000000" stroke-width="1" fill="none"></path></g></g><g transform="translate(968 153) rotate(0 90 25)"><text x="0" y="18" font-family="Virgil, Segoe UI Emoji" font-size="20px" fill="#000000" text-anchor="start" style="white-space: pre;" direction="ltr">Slider de recettes</text><text x="0" y="43" font-family="Virgil, Segoe UI Emoji" font-size="20px" fill="#000000" text-anchor="start" style="white-space: pre;" direction="ltr">   au hasard</text></g><g transform="translate(259 267.5) rotate(0 39 20)"><text x="0" y="14" font-family="Virgil, Segoe UI Emoji" font-size="16px" fill="#000000" text-anchor="start" style="white-space: pre;" direction="ltr">Nom de la</text><text x="0" y="34" font-family="Virgil, Segoe UI Emoji" font-size="16px" fill="#000000" text-anchor="start" style="white-space: pre;" direction="ltr">recette</text></g><g stroke-linecap="round"><g transform="translate(234 313.6701428771863) rotate(0 -54.050938644805 -14.14814650752868)"><path d="M0.11 -0.53 C-17.94 -5.57, -89.23 -25.15, -107.17 -30.1 M-1.29 1.81 C-19.61 -3.11, -90.33 -23.73, -108.21 -28.93" stroke="#000000" stroke-width="1" fill="none"></path></g><g transform="translate(234 313.6701428771863) rotate(0 -54.050938644805 -14.14814650752868)"><path d="M-79.16 -31.19 C-91.17 -30.98, -103.19 -29.02, -107.06 -27.45 M-77.7 -30.74 C-90.25 -30.02, -101.38 -29.86, -108.85 -28.89" stroke="#000000" stroke-width="1" fill="none"></path></g><g transform="translate(234 313.6701428771863) rotate(0 -54.050938644805 -14.14814650752868)"><path d="M-84.89 -11.49 C-94.67 -19.01, -104.44 -24.79, -107.06 -27.45 M-83.43 -11.03 C-93.53 -18.22, -102.38 -25.92, -108.85 -28.89" stroke="#000000" stroke-width="1" fill="none"></path></g></g><g transform="translate(59 255) rotate(0 29.5 20)"><text x="0" y="14" font-family="Virgil, Segoe UI Emoji" font-size="16px" fill="#000000" text-anchor="start" style="white-space: pre;" direction="ltr">Image</text><text x="0" y="34" font-family="Virgil, Segoe UI Emoji" font-size="16px" fill="#000000" text-anchor="start" style="white-space: pre;" direction="ltr">du plat</text></g><g transform="translate(416 231) rotate(0 115.5 10)"><text x="0" y="14" font-family="Virgil, Segoe UI Emoji" font-size="16px" fill="#000000" text-anchor="start" style="white-space: pre;" direction="ltr">Quelques idées de recettes :</text></g><g stroke-linecap="round" transform="translate(250 482) rotate(0 72.5 15)"><path d="M-1.53 0.73 C31.84 2.51, 62.04 0.72, 145.42 0.02 M-0.69 0.89 C45.27 -0.8, 89.27 0.54, 145.78 -0.76 M143.01 -1.01 C144.61 9.06, 144.24 22.29, 145.52 31.3 M144.76 -0.82 C145.56 7.85, 144.6 13.46, 145.4 30.47 M144.97 31.42 C96.86 29.4, 52.54 27.17, 1.35 31.48 M144.49 30.16 C91.84 28.43, 37.13 28.54, 0.7 29.21 M0.92 31.36 C1.48 25.05, -0.07 16.1, 0.91 0.02 M0.39 30.36 C0.55 22.08, -0.13 12.03, 0.93 0.34" stroke="#000000" stroke-width="1" fill="none"></path></g><g stroke-linecap="round" transform="translate(464.5 481.5) rotate(0 72.5 15)"><path d="M-1.88 -1.5 C45.73 2.3, 92.64 -0.63, 145.1 -1.58 M0.11 1 C29.02 -1.75, 60.26 -0.39, 144.09 -0.9 M146.44 -0.2 C144.91 9.15, 146.95 20.34, 143.01 31.01 M145.2 0.3 C144.72 9.38, 144.79 17.94, 145.06 30.13 M144.6 29 C112.23 29.41, 80.93 29.29, -1.96 28.17 M145.4 30.46 C100.72 29.29, 55.75 29.64, 0.02 29.68 M-1.91 28.97 C1.72 22.22, -1.36 10.95, -0.59 -1.56 M-0.22 30.16 C-0.13 19.62, 0.12 11.19, -0.42 -0.33" stroke="#000000" stroke-width="1" fill="none"></path></g><g stroke-linecap="round" transform="translate(686.5 482.5) rotate(0 72.5 15)"><path d="M0.05 -0.73 C30.13 0.86, 58.51 -0.43, 143.36 0.33 M0.86 -0.91 C42.84 -0.61, 88.58 0.61, 144.45 -0.34 M146.18 1.76 C144.33 8.43, 144.85 14.43, 145.6 30.29 M145.54 0.55 C145.53 8.54, 144.37 15.56, 145.72 30.5 M144.31 30.22 C90.07 30.9, 34.88 30.51, -0.44 30.05 M145.48 29.9 C95.7 30.13, 48.18 31.3, 0.72 29.75 M0.16 31.34 C-0.77 23.1, 0.02 17.56, -0.6 -0.57 M-0.25 29.26 C0.16 18.23, -0.55 7.43, -0.66 0.37" stroke="#000000" stroke-width="1" fill="none"></path></g><g stroke-linecap="round" transform="translate(249.5 551.5) rotate(0 72.5 15)"><path d="M-1.21 -0.62 C49.03 1.88, 97.16 -0.35, 143.77 0.41 M-0.35 0.13 C38.68 -0.04, 76.97 -1.26, 145.79 -0.61 M144.96 -0.81 C143.46 8.29, 143.61 16.68, 143.08 29.99 M144.03 0.62 C144.63 12.58, 144.22 22.62, 144.96 29.27 M145.1 31.76 C88.78 29.08, 37.7 28.64, -1.88 31.69 M144.02 29.46 C99.01 30.7, 52.91 31.73, -0.58 30.27 M-1.05 31.36 C-1.85 19.2, -0.1 9.02, -0.77 0.6 M0.33 29.31 C-0.87 22.84, -0.29 16.5, 0.96 -0.25" stroke="#000000" stroke-width="1" fill="none"></path></g><g stroke-linecap="round" transform="translate(464.5 550.5) rotate(0 72.5 15)"><path d="M-1.45 1.49 C35.56 0.55, 67.89 1.82, 143.1 -1.28 M0.84 0.21 C53.94 1.91, 105.48 0.83, 145.55 -0.09 M145.54 1.32 C147.02 11.65, 144.23 25.35, 143.41 30.18 M145.3 -0.64 C145.49 8.72, 145.47 17.79, 144.24 29.92 M144.49 30.41 C105.83 31.6, 62.38 32.82, -0.07 30 M145.8 29.61 C109.03 30.77, 72.84 31.01, -0.23 29.56 M1.02 29.38 C1.07 22.58, -0.32 12.81, -0.58 1.13 M-0.51 29.07 C0.65 19.34, 0.44 9.14, -0.87 0.89" stroke="#000000" stroke-width="1" fill="none"></path></g><g stroke-linecap="round" transform="translate(688.5 553.5) rotate(0 72.5 15)"><path d="M0.65 -1.37 C32.69 0.59, 68.06 2.07, 146.93 -0.51 M-0.49 0.71 C46.44 -0.14, 92.41 0.17, 145.96 0.8 M143.85 -0.76 C144.48 6.94, 144.06 17.5, 145.99 31.02 M144.98 -0.92 C144.91 8.64, 145.64 15.91, 145.61 29.49 M145.75 29.54 C113.27 31.28, 85.94 27.85, -0.43 30.02 M145.49 30.11 C90.54 30.5, 35.29 28.68, 0.53 30.03 M1.28 30.58 C-1.73 22.67, -1.99 10.8, 0.65 -0.95 M-0.43 30.12 C-0.61 19.92, -0.89 10.04, 0.33 0.41" stroke="#000000" stroke-width="1" fill="none"></path></g><g transform="translate(255 487) rotate(0 67.5 10)"><text x="67.5" y="14" font-family="Virgil, Segoe UI Emoji" font-size="16px" fill="#000000" text-anchor="middle" style="white-space: pre;" direction="ltr">Fruits</text></g><g transform="translate(469.5 486.5) rotate(0 67.5 10)"><text x="67.5" y="14" font-family="Virgil, Segoe UI Emoji" font-size="16px" fill="#000000" text-anchor="middle" style="white-space: pre;" direction="ltr">Légumes</text></g><g transform="translate(691.5 487.5) rotate(0 67.5 10)"><text x="67.5" y="14" font-family="Virgil, Segoe UI Emoji" font-size="16px" fill="#000000" text-anchor="middle" style="white-space: pre;" direction="ltr">Viandes</text></g><g transform="translate(254.5 556.5) rotate(0 67.5 10)"><text x="67.5" y="14" font-family="Virgil, Segoe UI Emoji" font-size="16px" fill="#000000" text-anchor="middle" style="white-space: pre;" direction="ltr">Poissons</text></g><g transform="translate(469.5 555.5) rotate(0 67.5 10)"><text x="67.5" y="14" font-family="Virgil, Segoe UI Emoji" font-size="16px" fill="#000000" text-anchor="middle" style="white-space: pre;" direction="ltr">Epices</text></g><g transform="translate(693.5 558.5) rotate(0 67.5 10)"><text x="67.5" y="14" font-family="Virgil, Segoe UI Emoji" font-size="16px" fill="#000000" text-anchor="middle" style="white-space: pre;" direction="ltr">Produits laitiers</text></g><g stroke-linecap="round" transform="translate(253.5 627) rotate(0 72.5 15)"><path d="M-0.3 -0.63 C42.06 -1.01, 82.79 -2.88, 145.76 1.42 M0.04 0.21 C43.87 -0.87, 87.22 -0.16, 145.61 -0.63 M144.08 -1.99 C143.35 8.51, 146.18 22.82, 143.12 31.7 M144.87 0.01 C144.7 7.21, 144.32 14.95, 144.84 29.77 M146.26 31.58 C93.43 30.95, 40.11 29.57, 0.22 29.88 M144.92 30.34 C90.77 29.24, 36.83 28.62, -0.68 29.7 M-1.1 30.74 C0.49 21.78, -1.52 12.9, -0.51 -1.68 M0.15 29.45 C-0.97 17.34, 0.67 6.1, -0.44 -0.33" stroke="#000000" stroke-width="1" fill="none"></path></g><g transform="translate(258.5 632) rotate(0 67.5 10)"><text x="67.5" y="14" font-family="Virgil, Segoe UI Emoji" font-size="16px" fill="#000000" text-anchor="middle" style="white-space: pre;" direction="ltr">Quel type ?</text></g><g stroke-linecap="round" transform="translate(464.5 627) rotate(0 73.5 15)"><path d="M-1.13 -0.43 C50.07 1.4, 104.53 -2.16, 148.41 0.83 M0.64 0.77 C40.33 2.11, 81.35 1.86, 147.65 0.11 M145.8 -0.2 C148.68 5.76, 148.13 13.43, 146.06 31.05 M146.83 -0.24 C147.55 10.82, 147.42 23.12, 147.67 29.05 M148.3 30.4 C87.98 30.75, 31.4 28.2, -0.49 31.95 M146.43 29.57 C90.54 28.39, 36.87 29.92, -0.05 29.2 M-0.26 29.91 C-0.92 20.87, 0.04 13.24, -1.86 -0.47 M-0.51 29.08 C1.18 20.1, 0.7 9.1, -0.06 0.83" stroke="#000000" stroke-width="1" fill="none"></path></g><g transform="translate(469.5 632) rotate(0 68.5 10)"><text x="68.5" y="14" font-family="Virgil, Segoe UI Emoji" font-size="16px" fill="#000000" text-anchor="middle" style="white-space: pre;" direction="ltr">Farine et levures</text></g><g stroke-linecap="round" transform="translate(691.5 626) rotate(0 72.5 15)"><path d="M1.65 1.33 C51.32 -0.29, 101.2 1.78, 145.7 -0.07 M-0.41 -0.58 C43.13 -1.05, 85.68 -1.53, 145.63 0.29 M146.61 -0.4 C145.7 13.3, 143.17 24.71, 145.56 31.34 M144.68 -0.78 C145.74 10.46, 145.83 22.06, 144.44 30.96 M144.7 29.72 C98.46 26.91, 55.44 27.83, -1.81 30.64 M144.59 30.64 C94.92 30.07, 44.28 31.72, -0.6 30.58 M-0.63 30.29 C1.01 21.99, -1.24 12.33, 0.27 0.63 M-0.99 30.82 C-0.09 20.64, 0.45 10.55, 1 0.31" stroke="#000000" stroke-width="1" fill="none"></path></g><g transform="translate(696.5 631) rotate(0 67.5 10)"><text x="67.5" y="14" font-family="Virgil, Segoe UI Emoji" font-size="16px" fill="#000000" text-anchor="middle" style="white-space: pre;" direction="ltr">Sauces</text></g><g stroke-linecap="round"><g transform="translate(214.59165573438804 503.34600695839663) rotate(0 -58.35987255190514 -12.024187084913194)"><path d="M-0.65 -0.31 C-20.18 -4.25, -97.6 -19.95, -117.37 -23.74 M1.21 -1.51 C-18.39 -5.27, -98.22 -18.41, -117.93 -22.35" stroke="#000000" stroke-width="1" fill="none"></path></g><g transform="translate(214.59165573438804 503.34600695839663) rotate(0 -58.35987255190514 -12.024187084913194)"><path d="M-88.88 -26.22 C-97.19 -28.13, -104.36 -24.41, -116.86 -22.55 M-88.61 -27.44 C-98.08 -26.33, -108.64 -25.04, -117.48 -21.45" stroke="#000000" stroke-width="1" fill="none"></path></g><g transform="translate(214.59165573438804 503.34600695839663) rotate(0 -58.35987255190514 -12.024187084913194)"><path d="M-92.51 -6.02 C-99.79 -13.62, -105.93 -15.61, -116.86 -22.55 M-92.25 -7.25 C-100.27 -13.02, -109.59 -18.63, -117.48 -21.45" stroke="#000000" stroke-width="1" fill="none"></path></g></g><g transform="translate(10 462) rotate(0 41.5 20)"><text x="0" y="14" font-family="Virgil, Segoe UI Emoji" font-size="16px" fill="#000000" text-anchor="start" style="white-space: pre;" direction="ltr">Diverses</text><text x="0" y="34" font-family="Virgil, Segoe UI Emoji" font-size="16px" fill="#000000" text-anchor="start" style="white-space: pre;" direction="ltr">catégories</text></g><g stroke-linecap="round" transform="translate(241 467) rotate(0 301.5 120.5)"><path d="M0.31 0.32 C216.6 2.03, 431.76 1.05, 603.76 -0.35 M-0.28 0.25 C150.03 -1.48, 300.1 -1.64, 603.01 -0.29 M602.67 0.41 C605.43 62.89, 605.21 125.34, 603.35 240.8 M602.69 0.26 C601.76 76.29, 602.65 152.9, 602.89 241.76 M603.56 240.86 C372.65 240.09, 141.76 240.23, -0.55 240.25 M603.08 241.02 C478.16 238.45, 352.72 239.06, 0.13 241.01 M0.05 239.91 C0.05 182.4, 1.52 124.35, -1.48 0.33 M0.15 240.54 C0.87 144.92, 0.48 48.53, -0.23 -0.28" stroke="#000000" stroke-width="1" fill="none"></path></g><g stroke-linecap="round"><g transform="translate(836 498) rotate(0 52.24784050415269 -29.879957178980078)"><path d="M0.94 0.78 C17.8 -9.2, 85.15 -50.28, 102.22 -60.54 M-0.03 0.15 C17.13 -9.62, 87.39 -49.28, 104.53 -59.29" stroke="#000000" stroke-width="1" fill="none"></path></g><g transform="translate(836 498) rotate(0 52.24784050415269 -29.879957178980078)"><path d="M86.47 -37.67 C91.86 -44.78, 98.89 -52.38, 102.6 -57.87 M85.16 -37.15 C91.39 -43.74, 97.66 -49.9, 104.67 -58.49" stroke="#000000" stroke-width="1" fill="none"></path></g><g transform="translate(836 498) rotate(0 52.24784050415269 -29.879957178980078)"><path d="M76.27 -55.47 C85.5 -55.8, 96.47 -56.53, 102.6 -57.87 M74.96 -54.96 C84.23 -56.23, 93.58 -57.04, 104.67 -58.49" stroke="#000000" stroke-width="1" fill="none"></path></g></g><g transform="translate(953 418) rotate(0 66.5 30)"><text x="0" y="14" font-family="Virgil, Segoe UI Emoji" font-size="16px" fill="#000000" text-anchor="start" style="white-space: pre;" direction="ltr">Menu burger</text><text x="0" y="34" font-family="Virgil, Segoe UI Emoji" font-size="16px" fill="#000000" text-anchor="start" style="white-space: pre;" direction="ltr">à choix multiples,</text><text x="0" y="54" font-family="Virgil, Segoe UI Emoji" font-size="16px" fill="#000000" text-anchor="start" style="white-space: pre;" direction="ltr">comme suit :</text></g><g transform="translate(500 678) rotate(0 42 10)"><text x="0" y="14" font-family="Virgil, Segoe UI Emoji" font-size="16px" fill="#000000" text-anchor="start" style="white-space: pre;" direction="ltr">Rechercher</text></g><g stroke-linecap="round"><g transform="translate(593 688) rotate(0 76.57826886508144 50.01994234570299)"><path d="M0.71 -0.16 C26.39 16.65, 128.04 83.18, 153.53 99.87 M-0.38 -1.29 C25.24 15.8, 127.26 84.24, 152.87 101.33" stroke="#000000" stroke-width="1" fill="none"></path></g><g transform="translate(593 688) rotate(0 76.57826886508144 50.01994234570299)"><path d="M123.46 95.07 C130.88 96.94, 138.5 97.34, 151.75 99.68 M123.31 95.05 C134.3 96.15, 144.74 98.83, 152.8 100.76" stroke="#000000" stroke-width="1" fill="none"></path></g><g transform="translate(593 688) rotate(0 76.57826886508144 50.01994234570299)"><path d="M134.88 78.01 C139.24 84.3, 143.95 89.05, 151.75 99.68 M134.73 78 C141.5 85.3, 147.76 94.23, 152.8 100.76" stroke="#000000" stroke-width="1" fill="none"></path></g></g><g transform="translate(765 786) rotate(0 83.5 40.00000000000006)"><text x="0" y="14" font-family="Virgil, Segoe UI Emoji" font-size="16px" fill="#000000" text-anchor="start" style="white-space: pre;" direction="ltr">Bouton initiant</text><text x="0" y="34" font-family="Virgil, Segoe UI Emoji" font-size="16px" fill="#000000" text-anchor="start" style="white-space: pre;" direction="ltr">la recherche en</text><text x="0" y="54" font-family="Virgil, Segoe UI Emoji" font-size="16px" fill="#000000" text-anchor="start" style="white-space: pre;" direction="ltr">fonction des produits</text><text x="0" y="74" font-family="Virgil, Segoe UI Emoji" font-size="16px" fill="#000000" text-anchor="start" style="white-space: pre;" direction="ltr">sélectionnés</text></g><g stroke-linecap="round" transform="translate(953 491) rotate(0 183 109.5)"><path d="M0.82 -0.34 C75.06 -0.35, 152.65 -1.44, 365.6 -0.95 M0.12 0.61 C117.24 0.94, 233.54 1.02, 366.56 0.41 M364.3 0.63 C365.72 63.67, 364.39 130.42, 366.18 218.97 M366.43 0.28 C365.56 86.64, 365.11 173.74, 366.32 219.42 M366.9 219.97 C236.56 218.59, 105.77 218.27, -0.05 218.15 M365.98 219.46 C283.21 218.79, 199.59 219.16, 0.47 219.16 M-1.11 220.69 C-0.81 165.07, -1.36 112.98, 0.19 -0.53 M-0.31 219.45 C0.96 159.06, 0.97 100.22, 0.21 -0.09" stroke="#000000" stroke-width="1" fill="none"></path></g><g transform="translate(969 503) rotate(0 34.5 10)"><text x="0" y="14" font-family="Virgil, Segoe UI Emoji" font-size="16px" fill="#000000" text-anchor="start" style="white-space: pre;" direction="ltr">Viandes :</text></g><g stroke-linecap="round" transform="translate(967 541) rotate(0 6 6)"><path d="M0.62 -1.16 C1.89 -1.11, 5.29 0.34, 11.87 0.49 M-0.55 0.51 C3.12 -0.29, 4.66 0.62, 12.03 0.02 M12.19 -0.15 C13 2.58, 11.26 6.84, 12.23 12.52 M11.51 0.37 C11.32 3.34, 12.18 6.41, 11.73 12.12 M11.44 12.46 C6.98 13.12, 1.86 10.99, 0.05 11.18 M11.48 11.52 C7.71 12.29, 3.77 12.45, -0.32 11.8 M-1.07 12.05 C-1.13 7.45, 0.13 3.74, -0.51 -0.51 M0.23 12.39 C-0.04 9.17, 0.37 7.42, 0.57 0.3" stroke="#000000" stroke-width="1" fill="none"></path></g><g stroke-linecap="round" transform="translate(968 578) rotate(0 6 6)"><path d="M-0.07 0.6 C1.95 -0.43, 5.48 1.11, 12.88 0.06 M0.56 -0.48 C2.54 0.07, 5.68 0.16, 12.55 0.31 M12.46 -1.11 C12.69 1.91, 11.5 5.88, 12.81 12.82 M11.9 0.1 C12.23 2.27, 11.75 4.49, 11.66 11.6 M11.27 12.59 C8.64 13.11, 4.48 11.91, -0.97 13.15 M12.49 11.6 C9.42 11.58, 7.13 11.43, -0.42 11.55 M0.41 12.75 C-0.58 9.74, 0.7 6.56, 0.57 0.77 M-0.11 11.94 C0.14 7.44, 0.45 3.49, -0.55 0.4" stroke="#000000" stroke-width="1" fill="none"></path></g><g stroke-linecap="round" transform="translate(970 616) rotate(0 6 6)"><path d="M-1.13 -0.69 C3.23 0.51, 8.86 -0.16, 11.27 0.59 M-0.03 -0.49 C4.87 -0.61, 8.92 -0.34, 12.49 -0.4 M10.97 -0.84 C11.03 3.13, 12.04 6.87, 12.41 12.75 M12.57 0.28 C12.49 3.42, 11.86 5.88, 11.89 11.94 M12.5 10.9 C9.01 11.19, 3.24 11.57, 0.61 11.3 M12.46 11.58 C9.27 11.57, 7.08 12.22, 0.04 12.18 M-0.93 13.09 C-0.07 7.83, 0.54 4.78, 0.29 0.86 M-0.43 12.12 C-0.62 7.75, -0.64 4.84, -0.09 -0.34" stroke="#000000" stroke-width="1" fill="none"></path></g><g stroke-linecap="round" transform="translate(972 658) rotate(0 6 6)"><path d="M-0.31 0.11 C2.55 0.5, 5.89 -0.48, 13.03 0.71 M0.39 -0.25 C4.57 -0.19, 9.43 0.02, 11.82 0.4 M11.11 -1.18 C11.38 4.71, 11.19 7.27, 11.51 13.04 M11.46 0.43 C12.03 4.56, 12.09 9.31, 11.75 12.23 M11.97 12.49 C10.37 12.27, 7.52 12.09, 1.01 12.54 M11.45 11.47 C9.51 11.81, 6.2 12.16, 0.07 12.51 M-0.28 11.97 C0.49 9.17, 0.05 6.37, -0.64 -0.2 M-0.15 11.64 C-0.16 7.48, -0.15 2.66, -0.27 -0.44" stroke="#000000" stroke-width="1" fill="none"></path></g><g transform="translate(996 538) rotate(0 26.5 10)"><text x="0" y="14" font-family="Virgil, Segoe UI Emoji" font-size="16px" fill="#000000" text-anchor="start" style="white-space: pre;" direction="ltr">Choix 1</text></g><g transform="translate(997.5 578) rotate(0 30 10)"><text x="0" y="14" font-family="Virgil, Segoe UI Emoji" font-size="16px" fill="#000000" text-anchor="start" style="white-space: pre;" direction="ltr">Choix 2</text></g><g transform="translate(1001.5 614) rotate(0 29.5 10)"><text x="0" y="14" font-family="Virgil, Segoe UI Emoji" font-size="16px" fill="#000000" text-anchor="start" style="white-space: pre;" direction="ltr">Choix 3</text></g><g transform="translate(1004.5 656) rotate(0 29.5 10)"><text x="0" y="14" font-family="Virgil, Segoe UI Emoji" font-size="16px" fill="#000000" text-anchor="start" style="white-space: pre;" direction="ltr">Choix 4</text></g><g stroke-linecap="round" transform="translate(1080.75 542) rotate(0 6 6)"><path d="M-0.47 1.13 C2.96 0.45, 8.05 -1.18, 12.98 0.08 M-0.53 0.33 C4.81 0.11, 9.21 -0.2, 12.44 0.03 M12.8 0.24 C11.05 2.26, 11.96 7.17, 12.93 13.09 M12.27 -0.3 C11.98 3.68, 11.51 7.78, 11.69 12.26 M12.96 11.27 C8.57 11.52, 6.36 12.94, -0.5 11.77 M11.83 11.61 C9.07 12.5, 6.49 11.53, 0.56 11.57 M0.02 12.72 C0.9 7.75, -0.37 4.27, 0.68 0.44 M0.17 11.69 C0.07 9.09, 0.63 6.4, 0.12 0.53" stroke="#000000" stroke-width="1" fill="none"></path></g><g stroke-linecap="round" transform="translate(1081.75 579) rotate(0 6 6)"><path d="M1.13 -0.57 C3.2 1.04, 4.22 1.03, 12.08 0.8 M0.33 0.41 C4.54 0.51, 8.68 0.54, 12.03 -0.29 M12.24 -1.06 C11.14 4.55, 13.02 10.33, 13.09 12.4 M11.7 0.03 C11.69 2.74, 11.79 6.06, 12.26 11.6 M11.27 11.37 C8.42 12.05, 6.63 11.6, -0.23 10.98 M11.61 11.64 C9.08 11.61, 4.6 12.52, -0.43 12.33 M0.72 12.86 C-0.07 8.37, 0.71 6.23, 0.44 -0.64 M-0.31 12.02 C0.15 9.44, 0.42 5.82, 0.53 0.2" stroke="#000000" stroke-width="1" fill="none"></path></g><g stroke-linecap="round" transform="translate(1083.75 617) rotate(0 6 6)"><path d="M-0.57 0.56 C5.72 -1.18, 10.45 -0.03, 12.8 0.84 M0.41 0.09 C3.81 -0.28, 7.27 -0.03, 11.71 0.55 M10.94 -0.77 C11.93 3.81, 13.01 6.48, 12.4 11.58 M12.03 -0.33 C11.61 3.6, 11.75 7.92, 11.6 11.8 M11.37 11.63 C9.44 12.97, 6.47 11.7, -1.02 11.9 M11.64 12.58 C8.8 11.53, 6.86 11.49, 0.33 11.81 M0.86 12.02 C-0.41 8.26, 0.68 3.34, -0.64 -0.45 M0.02 12.05 C0.55 9.76, 0.09 7.44, 0.2 0.12" stroke="#000000" stroke-width="1" fill="none"></path></g><g stroke-linecap="round" transform="translate(1085.75 659) rotate(0 6 6)"><path d="M0.56 0.99 C2.07 1.04, 6.35 0.86, 12.84 -0.18 M0.09 0.4 C2.32 0.35, 5.1 -0.37, 12.55 -0.45 M11.23 -0.15 C13.14 5.33, 13.11 9.21, 11.58 12.23 M11.67 -0.45 C11.71 3.83, 12.2 7.87, 11.8 11.46 M11.63 11.96 C8.49 11.44, 2.66 10.91, -0.1 11.25 M12.58 11.64 C8.34 12.49, 5.04 12.26, -0.19 12.47 M0.02 11.59 C0.73 9.06, 0.36 4.11, -0.45 -1.05 M0.05 12.59 C0.37 8.17, 0.6 4.31, 0.12 0.08" stroke="#000000" stroke-width="1" fill="none"></path></g><g transform="translate(1109.75 539) rotate(0 29 10)"><text x="0" y="14" font-family="Virgil, Segoe UI Emoji" font-size="16px" fill="#000000" text-anchor="start" style="white-space: pre;" direction="ltr">Choix 5</text></g><g transform="translate(1111.25 579) rotate(0 29.5 10)"><text x="0" y="14" font-family="Virgil, Segoe UI Emoji" font-size="16px" fill="#000000" text-anchor="start" style="white-space: pre;" direction="ltr">Choix 6</text></g><g transform="translate(1115.25 615) rotate(0 28.5 10)"><text x="0" y="14" font-family="Virgil, Segoe UI Emoji" font-size="16px" fill="#000000" text-anchor="start" style="white-space: pre;" direction="ltr">Choix 7</text></g><g transform="translate(1118.25 657) rotate(0 30.5 10)"><text x="0" y="14" font-family="Virgil, Segoe UI Emoji" font-size="16px" fill="#000000" text-anchor="start" style="white-space: pre;" direction="ltr">Choix 8</text></g><g stroke-linecap="round" transform="translate(1196.75 543) rotate(0 6 6)"><path d="M-0.36 -0.75 C4.17 0.41, 5.78 -0.26, 11.11 0.49 M0.29 0.41 C3.19 0.38, 6.84 -0.1, 11.59 0.53 M12.94 0.59 C11.61 5.23, 12.19 7.1, 11.04 11.94 M11.47 0.2 C11.96 5.03, 12.62 9.21, 12.23 11.44 M12.05 12.16 C8.32 11.5, 4.14 12.62, -1.07 11.11 M12.48 12.33 C8.13 12.35, 3.07 11.91, -0.04 12.54 M1.16 11.45 C-0.03 10.39, -0.33 7.17, 1.17 0.94 M-0.57 12 C0.31 8.1, 0.45 4.5, -0.38 -0.06" stroke="#000000" stroke-width="1" fill="none"></path></g><g stroke-linecap="round" transform="translate(1197.75 580) rotate(0 6 6)"><path d="M-0.75 1.13 C3.46 -0.28, 5.75 -0.85, 12.49 -0.21 M0.41 -0.2 C3.97 -0.01, 7.13 -0.47, 12.53 0.25 M12.59 -0.29 C13.17 2.85, 10.94 4.16, 11.94 13.15 M12.2 -0.12 C12.25 5.01, 11.69 9.18, 11.44 12.33 M12.16 12.58 C8.59 12.67, 6.84 10.93, -0.89 12.62 M12.33 12.36 C9.84 11.61, 6.81 12.05, 0.54 11.55 M-0.55 12.08 C1.19 7.09, 0.66 3.79, 0.94 0.06 M0 12.33 C-0.22 8.68, -0.16 4.05, -0.06 -0.1" stroke="#000000" stroke-width="1" fill="none"></path></g><g stroke-linecap="round" transform="translate(1199.75 618) rotate(0 6 6)"><path d="M1.13 0.51 C4.35 -0.08, 8.43 0.57, 11.79 0.04 M-0.2 0.33 C3.07 -0.24, 5.63 0.44, 12.25 -0.52 M11.71 1.13 C12.39 2.93, 11.13 8.02, 13.15 12.88 M11.88 0.28 C12.43 3.03, 12.12 6.06, 12.33 11.63 M12.58 11.45 C8.58 12.58, 2.75 11.13, 0.62 10.99 M12.36 12.44 C8.78 12.06, 6.49 12.61, -0.45 12.54 M0.08 13.08 C-0.34 10.01, 1.05 7.84, 0.06 0.18 M0.33 11.76 C0.58 8.41, -0.27 5.13, -0.1 0.55" stroke="#000000" stroke-width="1" fill="none"></path></g><g stroke-linecap="round" transform="translate(1201.75 660) rotate(0 6 6)"><path d="M0.51 -0.31 C3.09 -1, 6.97 -0.32, 12.04 -0.58 M0.33 0.05 C4.02 -0.37, 8.89 0.29, 11.48 0.22 M13.13 0.29 C10.95 3.58, 12 10.23, 12.88 11.71 M12.28 0.53 C11.76 2.76, 11.49 5.4, 11.63 12.24 M11.45 12.67 C8.92 10.99, 3.81 12.68, -1.01 11.13 M12.44 11.52 C7.44 12.03, 3.42 11.62, 0.54 11.47 M1.08 11.77 C0.61 8.41, 0.99 2.54, 0.18 -0.2 M-0.24 12.47 C-0.18 9.16, -0.06 6.98, 0.55 0.05" stroke="#000000" stroke-width="1" fill="none"></path></g><g transform="translate(1225.75 540) rotate(0 26.5 10)"><text x="0" y="14" font-family="Virgil, Segoe UI Emoji" font-size="16px" fill="#000000" text-anchor="start" style="white-space: pre;" direction="ltr">Choix 1</text></g><g transform="translate(1227.25 580) rotate(0 28.5 10)"><text x="0" y="14" font-family="Virgil, Segoe UI Emoji" font-size="16px" fill="#000000" text-anchor="start" style="white-space: pre;" direction="ltr">Choix 11</text></g><g transform="translate(1231.25 616) rotate(0 32 10)"><text x="0" y="14" font-family="Virgil, Segoe UI Emoji" font-size="16px" fill="#000000" text-anchor="start" style="white-space: pre;" direction="ltr">Choix 12</text></g><g transform="translate(1234.25 658) rotate(0 32 10)"><text x="0" y="14" font-family="Virgil, Segoe UI Emoji" font-size="16px" fill="#000000" text-anchor="start" style="white-space: pre;" direction="ltr">Choix 13</text></g><g transform="translate(1279 540) rotate(0 6 10)"><text x="0" y="14" font-family="Virgil, Segoe UI Emoji" font-size="16px" fill="#000000" text-anchor="start" style="white-space: pre;" direction="ltr">0</text></g><g stroke-linecap="round"><g transform="translate(961 529) rotate(0 44.31945635899899 0.1944396353574689)"><path d="M-1 0.17 C14.07 0.4, 74.29 1.21, 89.64 1.18 M0.68 -0.78 C15.62 -0.85, 73.46 -0.67, 88.5 -0.32" stroke="#000000" stroke-width="1" fill="none"></path></g></g></svg>