<svg version="1.1" xmlns="http://www.w3.org/2000/svg" viewBox="0 0 985 832.875" width="985" height="832.875">
  <!-- svg-source:excalidraw -->
  
  <defs>
    <style>
      @font-face {
        font-family: "Virgil";
        src: url("https://excalidraw.com/Virgil.woff2");
      }
      @font-face {
        font-family: "Cascadia";
        src: url("https://excalidraw.com/Cascadia.woff2");
      }
    </style>
  </defs>
  <rect x="0" y="0" width="985" height="832.875" fill="#ffffff"></rect><g stroke-linecap="round" transform="translate(254.25 104.875) rotate(0 202.125 359)"><path d="M0.48 -0.38 C158.36 -1.48, 316.17 -1.83, 403.33 -0.77 M0.12 0.55 C155.53 0.04, 310.51 0.33, 403.72 0.42 M403.78 -0.56 C403.87 276.89, 404.24 552.83, 404.55 718.28 M404.45 0.01 C406.14 268.19, 406 536.54, 403.96 718.1 M405.27 718.35 C259.94 715.74, 114.71 715.89, -0.65 719.08 M404.23 718.02 C250.61 717.24, 97.96 717.09, 0.04 717.63 M0.57 718.13 C1.34 530.25, 0.67 342.01, -0.34 0.67 M-0.26 717.99 C-2.52 443.97, -2.22 169.16, -0.36 0.33" stroke="#000000" stroke-width="1" fill="none"></path></g><g stroke-linecap="round" transform="translate(367.5 180.375) rotate(0 53 34)"><path d="M0.45 1.25 C37.1 2.45, 73.69 0, 106.34 1.37 M-0.81 -0.55 C24.63 -0.61, 49.88 -0.79, 105.09 0.81 M107.3 -1.94 C107.64 25.52, 104.9 47.06, 104.33 67.42 M105.09 -0.27 C104.48 24.68, 104.49 50.57, 106.13 68.93 M107.76 67.13 C68.09 68.74, 30.32 69.72, 0.79 66.29 M106.7 68.35 C78.68 68.08, 52.26 67.22, -0.77 68.84 M1.16 66.96 C0.82 51.98, 0.58 33.57, -0.21 -0.82 M0.41 67.9 C0.39 49.21, -0.61 29.19, 0.79 -0.11" stroke="#000000" stroke-width="1" fill="none"></path></g><g transform="translate(372.5 201.875) rotate(0 48 12.5)"><text x="48" y="18" font-family="Virgil, Segoe UI Emoji" font-size="20px" fill="#000000" text-anchor="middle" style="white-space: pre;" direction="ltr">Logo</text></g><g transform="translate(361.5 140.375) rotate(0 60.5 17.5)"><text x="0" y="25" font-family="Virgil, Segoe UI Emoji" font-size="28px" fill="#000000" text-anchor="start" style="white-space: pre;" direction="ltr">WATWIT</text></g><g transform="translate(842.25 155.125) rotate(0 46 20)"><text x="0" y="14" font-family="Virgil, Segoe UI Emoji" font-size="16px" fill="#000000" text-anchor="start" style="white-space: pre;" direction="ltr">Mes favoris</text><text x="0" y="34" font-family="Virgil, Segoe UI Emoji" font-size="16px" fill="#000000" text-anchor="start" style="white-space: pre;" direction="ltr">Mon compte</text></g><g transform="translate(819 40.625) rotate(0 75 30)"><text x="0" y="14" font-family="Virgil, Segoe UI Emoji" font-size="16px" fill="#000000" text-anchor="start" style="white-space: pre;" direction="ltr">Accueil</text><text x="0" y="34" font-family="Virgil, Segoe UI Emoji" font-size="16px" fill="#000000" text-anchor="start" style="white-space: pre;" direction="ltr">Dernières recettes</text><text x="0" y="54" font-family="Virgil, Segoe UI Emoji" font-size="16px" fill="#000000" text-anchor="start" style="white-space: pre;" direction="ltr">Type de repas</text></g><g transform="translate(335.5 266.875) rotate(0 91 12.5)"><text x="0" y="18" font-family="Virgil, Segoe UI Emoji" font-size="20px" fill="#000000" text-anchor="start" style="white-space: pre;" direction="ltr">Et bwon appétit' !</text></g><g stroke-linecap="round" transform="translate(553.75 168.75) rotate(0 25.625 21.25)"><path d="M0.06 0.42 C14.02 -1.72, 24.82 1.81, 50.22 0.93 M-0.75 -0.15 C17.43 -0.25, 32.91 1.05, 51.47 -0.62 M49.29 -0.28 C50.35 11.11, 52.08 23.69, 50.95 42.05 M52 -0.57 C50.91 14.93, 52.06 30.6, 51.63 42.88 M52 43.34 C32.07 41.13, 12.58 41.8, -1.08 41.9 M52.05 43.42 C37.98 41.7, 24.18 41.84, 0.46 41.58 M0.37 43.13 C1.82 35.29, -0.81 23.96, 1.49 0.19 M-0.34 42.43 C-0.14 26.57, -1.04 12.24, 0.45 -0.94" stroke="#000000" stroke-width="1" fill="none"></path></g><g stroke-linecap="round"><g transform="translate(561.25 178.75) rotate(0 14.522837575706603 -0.03454448401373611)"><path d="M0 -1.07 C5.04 -1.15, 25.31 -0.88, 30.51 -0.58 M-1.46 0.98 C3.44 1.06, 24.42 1.02, 29.83 0.66" stroke="#000000" stroke-width="1" fill="none"></path></g></g><g stroke-linecap="round"><g transform="translate(562.5 191.25) rotate(0 14.804849299555656 0.1346911012770704)"><path d="M-0.18 -0.91 C4.86 -1.01, 24.11 -0.9, 29.11 -0.86 M-1.74 1.22 C3.78 1.29, 26.23 0.38, 31.35 0.22" stroke="#000000" stroke-width="1" fill="none"></path></g></g><g stroke-linecap="round"><g transform="translate(561.25 200) rotate(0 15.463951133592047 0.5752832461303683)"><path d="M0.8 -0.67 C5.65 -0.61, 24.19 0.06, 28.99 0.15 M-0.24 1.59 C4.99 1.89, 26.36 1.84, 31.17 1.76" stroke="#000000" stroke-width="1" fill="none"></path></g></g><g stroke-linecap="round"><g transform="translate(617.5 196.16660007189944) rotate(0 88.12277135019662 -49.311196877965614)"><path d="M0.57 -0.53 C30 -16.96, 147.45 -81.91, 176.84 -98.43 M-0.59 1.8 C28.71 -15.02, 146.69 -83.65, 176.19 -100.43" stroke="#000000" stroke-width="1" fill="none"></path></g><g transform="translate(617.5 196.16660007189944) rotate(0 88.12277135019662 -49.311196877965614)"><path d="M156 -76.49 C163.48 -83.95, 167.7 -93.61, 177.3 -102.18 M157.43 -78.44 C161.16 -82.79, 166.69 -88.63, 176.64 -100.73" stroke="#000000" stroke-width="1" fill="none"></path></g><g transform="translate(617.5 196.16660007189944) rotate(0 88.12277135019662 -49.311196877965614)"><path d="M145.76 -94.27 C156.56 -96.05, 164.08 -99.97, 177.3 -102.18 M147.19 -96.23 C153.48 -95.91, 161.65 -97.15, 176.64 -100.73" stroke="#000000" stroke-width="1" fill="none"></path></g></g><g stroke-linecap="round" transform="translate(807.5 10) rotate(0 83.75 106.25)"><path d="M1.43 0.76 C35.26 1.55, 68.57 0.84, 167.91 -0.24 M-0.43 -0.42 C47.71 -0.68, 94.69 0.48, 166.86 0.2 M167.46 0.3 C168.83 61.52, 168.21 121.57, 165.93 212.52 M166.91 0.51 C165.93 65.38, 166.18 132.04, 166.64 212.65 M165.55 211.61 C129.98 213.9, 95.13 216.11, 1.4 213.4 M167.65 213.41 C115.48 210.33, 62.24 209.97, 0.09 212.02 M-1.15 213.57 C-1.03 131.1, -0.76 49.72, 0.73 0.09 M0.29 212.61 C-0.78 134.84, -0.16 55.99, 0.27 0.11" stroke="#000000" stroke-width="1" fill="none"></path></g><g stroke-linecap="round"><g transform="translate(818.75 136.25) rotate(0 67.96572981420434 2.4461141354683775)"><path d="M0.56 1.1 C23.24 1.4, 113.94 2.26, 136.54 2.65 M-0.61 0.63 C21.91 1.07, 113.08 4.11, 135.74 4.26" stroke="#000000" stroke-width="1" fill="none"></path></g></g><g transform="translate(367.5 348) rotate(0 83.5 10)"><text x="0" y="14" font-family="Virgil, Segoe UI Emoji" font-size="16px" fill="#000000" text-anchor="start" style="white-space: pre;" direction="ltr">Mes plats préférés :</text></g><g stroke-linecap="round" transform="translate(283.75 400) rotate(0 81.875 67.49999999999994)"><path d="M-0.23 1.85 C58.87 2.33, 122.28 -0.65, 162.73 -1.47 M0.7 -0.94 C34.43 1.13, 67.79 1.34, 163.06 0.64 M163.21 -1.74 C164.68 40.94, 162.61 82.88, 163.83 135.31 M164.32 0.15 C164.22 37.65, 163.86 75.44, 163.33 135.68 M162.63 136.28 C102.43 135.31, 38.71 135.8, -1.38 135.16 M163.07 134.23 C125.68 134.34, 85.84 133.76, -0.75 135.11 M-0.17 135.67 C-0.23 104.76, 0.07 69.87, -1.35 1.03 M-0.28 134.65 C-0.33 93.72, 0.58 50.4, 0.4 -0.24" stroke="#000000" stroke-width="1" fill="none"></path></g><g stroke-linecap="round" transform="translate(466.875 400) rotate(0 81.875 67.49999999999994)"><path d="M-0.53 0.79 C46.81 0.69, 93.05 -2.11, 163.25 0.74 M-0.25 0.5 C61.56 0.46, 122.79 0.51, 164.74 -0.18 M162.31 -0.33 C165.08 34.55, 166.56 71.19, 164.62 134.97 M164.57 0.81 C164.51 35.69, 163.62 71.98, 164.38 135.4 M162.23 136.95 C104.68 135.51, 50.12 135.26, -0.92 133.59 M164.21 134.02 C127.79 136.89, 91.7 136.99, 0.22 134.52 M1.54 134.21 C-1.35 89.82, -0.52 45.41, -0.23 -1.74 M0.43 134.83 C0.44 82.13, 1.04 29.49, -0.78 -0.06" stroke="#000000" stroke-width="1" fill="none"></path></g><g stroke-linecap="round" transform="translate(285.625 555.0000000000002) rotate(0 81.875 67.49999999999994)"><path d="M0.98 0.45 C59.34 -2.17, 123.03 -2.55, 165.24 0.71 M-0.79 0.7 C60.03 1.62, 117.52 1.45, 164.35 0.46 M164.25 1.75 C162.24 51.46, 163.25 99.67, 162.44 135.66 M164.63 -0.05 C164.19 28.31, 163.42 56.15, 163.28 135.98 M164.38 135.21 C126.58 136.44, 88.28 134.57, -0.77 136.38 M163.84 135.98 C109.02 136.25, 53.6 136.72, 0.9 134.44 M-1.68 136.58 C0.2 100.09, -2.34 69.44, -0.35 -1.37 M-0.52 135.65 C0.96 103.87, 2.15 74.86, 0.66 0.09" stroke="#000000" stroke-width="1" fill="none"></path></g><g stroke-linecap="round" transform="translate(468.125 553.7500000000002) rotate(0 81.875 67.49999999999994)"><path d="M1.52 1.7 C43.03 1.42, 85.46 -0.83, 161.88 0.67 M0.82 0.25 C62.95 1.69, 128.22 0, 163.13 0.34 M161.91 0.24 C161.79 39.43, 162.26 74.47, 165.57 135.61 M163.45 0.06 C164.1 49.85, 162.95 98.7, 164.15 135.64 M164.93 136.54 C123.08 132.61, 80.27 132.86, -1.93 136.8 M163.63 134.17 C116.48 136.57, 69.93 136.53, 0.27 135.87 M-1.91 136.14 C0.6 102.85, 0 73.21, -0.35 1.97 M0.53 135.76 C-0.05 97.26, 0.08 59.11, -0.04 -0.8" stroke="#000000" stroke-width="1" fill="none"></path></g><g transform="translate(291.25 505.5) rotate(0 73 10)"><text x="0" y="14" font-family="Virgil, Segoe UI Emoji" font-size="16px" fill="#000000" text-anchor="start" style="white-space: pre;" direction="ltr">Nom de la recette</text></g><g stroke-linecap="round"><g transform="translate(277.5 461.25) rotate(0 -101.2700830271188 -40.030112536954675)"><path d="M-0.41 -1.09 C-34.38 -14.73, -169.3 -67.67, -202.94 -81.01 M1.58 0.95 C-32.67 -12.64, -170.04 -66.44, -204.12 -80.01" stroke="#000000" stroke-width="1" fill="none"></path></g><g transform="translate(277.5 461.25) rotate(0 -101.2700830271188 -40.030112536954675)"><path d="M-175.95 -79.95 C-187.08 -79.22, -198.59 -81.15, -203.32 -79.76 M-174.8 -79.7 C-180.16 -79.05, -186.17 -79.43, -203.93 -80.35" stroke="#000000" stroke-width="1" fill="none"></path></g><g transform="translate(277.5 461.25) rotate(0 -101.2700830271188 -40.030112536954675)"><path d="M-183.48 -60.86 C-191.92 -67.26, -200.6 -76.36, -203.32 -79.76 M-182.33 -60.61 C-186.26 -63.92, -190.7 -68.28, -203.93 -80.35" stroke="#000000" stroke-width="1" fill="none"></path></g></g><g transform="translate(10 359.25) rotate(0 30 30)"><text x="0" y="14" font-family="Virgil, Segoe UI Emoji" font-size="16px" fill="#000000" text-anchor="start" style="white-space: pre;" direction="ltr">Image</text><text x="0" y="34" font-family="Virgil, Segoe UI Emoji" font-size="16px" fill="#000000" text-anchor="start" style="white-space: pre;" direction="ltr">de la</text><text x="0" y="54" font-family="Virgil, Segoe UI Emoji" font-size="16px" fill="#000000" text-anchor="start" style="white-space: pre;" direction="ltr">recette</text></g><g transform="translate(292.5 409.25) rotate(0 76 10)"><text x="0" y="14" font-family="Virgil, Segoe UI Emoji" font-size="16px" fill="#000000" text-anchor="start" style="white-space: pre;" direction="ltr">Type(s) de recette</text></g></svg>