<svg version="1.1" xmlns="http://www.w3.org/2000/svg" viewBox="0 0 947.25 789.25" width="947.25" height="789.25">
  <!-- svg-source:excalidraw -->
  
  <defs>
    <style>
      @font-face {
        font-family: "Virgil";
        src: url("https://excalidraw.com/Virgil.woff2");
      }
      @font-face {
        font-family: "Cascadia";
        src: url("https://excalidraw.com/Cascadia.woff2");
      }
    </style>
  </defs>
  <rect x="0" y="0" width="947.25" height="789.25" fill="#ffffff"></rect><g stroke-linecap="round" transform="translate(203 10) rotate(0 367.125 384.625)"><path d="M0.34 -0.27 C287.85 -2.25, 575.32 -2.5, 733.59 -0.55 M0.09 0.39 C282.22 0.31, 564.04 0.51, 733.87 0.3 M733.78 -0.56 C733.87 296.64, 734.25 592.33, 734.55 769.53 M734.45 0.01 C736.26 287.35, 736.11 574.85, 733.96 769.35 M734.98 769.5 C471.91 766.61, 208.91 766.72, -0.46 770.02 M734.24 769.27 C455.48 768.38, 177.41 768.27, 0.03 768.99 M0.57 769.38 C1.42 568.08, 0.75 366.41, -0.34 0.67 M-0.26 769.24 C-2.68 475.63, -2.39 181.24, -0.36 0.33" stroke="#000000" stroke-width="1" fill="none"></path></g><g stroke-linecap="round" transform="translate(511.25 85.5) rotate(0 53 34)"><path d="M0.45 1.25 C37.1 2.45, 73.69 0, 106.34 1.37 M-0.81 -0.55 C24.63 -0.61, 49.88 -0.79, 105.09 0.81 M107.3 -1.94 C107.64 25.52, 104.9 47.06, 104.33 67.42 M105.09 -0.27 C104.48 24.68, 104.49 50.57, 106.13 68.93 M107.76 67.13 C68.09 68.74, 30.32 69.72, 0.79 66.29 M106.7 68.35 C78.68 68.08, 52.26 67.22, -0.77 68.84 M1.16 66.96 C0.82 51.98, 0.58 33.57, -0.21 -0.82 M0.41 67.9 C0.39 49.21, -0.61 29.19, 0.79 -0.11" stroke="#000000" stroke-width="1" fill="none"></path></g><g transform="translate(516.25 107) rotate(0 48 12.5)"><text x="48" y="18" font-family="Virgil, Segoe UI Emoji" font-size="20px" fill="#000000" text-anchor="middle" style="white-space: pre;" direction="ltr">Logo</text></g><g transform="translate(505.25 45.5) rotate(0 60.5 17.5)"><text x="0" y="25" font-family="Virgil, Segoe UI Emoji" font-size="28px" fill="#000000" text-anchor="start" style="white-space: pre;" direction="ltr">WATWIT</text></g><g transform="translate(479.25 172) rotate(0 91 12.5)"><text x="0" y="18" font-family="Virgil, Segoe UI Emoji" font-size="20px" fill="#000000" text-anchor="start" style="white-space: pre;" direction="ltr">Et bwon appétit' !</text></g><g transform="translate(477.5 268.125) rotate(0 83.5 10)"><text x="0" y="14" font-family="Virgil, Segoe UI Emoji" font-size="16px" fill="#000000" text-anchor="start" style="white-space: pre;" direction="ltr">Mes plats préférés :</text></g><g stroke-linecap="round" transform="translate(283.75 313.875) rotate(0 81.875 67.49999999999994)"><path d="M-0.23 1.85 C58.87 2.33, 122.28 -0.65, 162.73 -1.47 M0.7 -0.94 C34.43 1.13, 67.79 1.34, 163.06 0.64 M163.21 -1.74 C164.68 40.94, 162.61 82.88, 163.83 135.31 M164.32 0.15 C164.22 37.65, 163.86 75.44, 163.33 135.68 M162.63 136.28 C102.43 135.31, 38.71 135.8, -1.38 135.16 M163.07 134.23 C125.68 134.34, 85.84 133.76, -0.75 135.11 M-0.17 135.67 C-0.23 104.76, 0.07 69.87, -1.35 1.03 M-0.28 134.65 C-0.33 93.72, 0.58 50.4, 0.4 -0.24" stroke="#000000" stroke-width="1" fill="none"></path></g><g stroke-linecap="round" transform="translate(505.625 317.625) rotate(0 81.875 67.49999999999994)"><path d="M-0.53 0.79 C46.81 0.69, 93.05 -2.11, 163.25 0.74 M-0.25 0.5 C61.56 0.46, 122.79 0.51, 164.74 -0.18 M162.31 -0.33 C165.08 34.55, 166.56 71.19, 164.62 134.97 M164.57 0.81 C164.51 35.69, 163.62 71.98, 164.38 135.4 M162.23 136.95 C104.68 135.51, 50.12 135.26, -0.92 133.59 M164.21 134.02 C127.79 136.89, 91.7 136.99, 0.22 134.52 M1.54 134.21 C-1.35 89.82, -0.52 45.41, -0.23 -1.74 M0.43 134.83 C0.44 82.13, 1.04 29.49, -0.78 -0.06" stroke="#000000" stroke-width="1" fill="none"></path></g><g stroke-linecap="round" transform="translate(285.625 468.8750000000002) rotate(0 81.875 67.49999999999994)"><path d="M0.98 0.45 C59.34 -2.17, 123.03 -2.55, 165.24 0.71 M-0.79 0.7 C60.03 1.62, 117.52 1.45, 164.35 0.46 M164.25 1.75 C162.24 51.46, 163.25 99.67, 162.44 135.66 M164.63 -0.05 C164.19 28.31, 163.42 56.15, 163.28 135.98 M164.38 135.21 C126.58 136.44, 88.28 134.57, -0.77 136.38 M163.84 135.98 C109.02 136.25, 53.6 136.72, 0.9 134.44 M-1.68 136.58 C0.2 100.09, -2.34 69.44, -0.35 -1.37 M-0.52 135.65 C0.96 103.87, 2.15 74.86, 0.66 0.09" stroke="#000000" stroke-width="1" fill="none"></path></g><g stroke-linecap="round" transform="translate(506.875 471.3750000000002) rotate(0 81.875 67.49999999999994)"><path d="M1.52 1.7 C43.03 1.42, 85.46 -0.83, 161.88 0.67 M0.82 0.25 C62.95 1.69, 128.22 0, 163.13 0.34 M161.91 0.24 C161.79 39.43, 162.26 74.47, 165.57 135.61 M163.45 0.06 C164.1 49.85, 162.95 98.7, 164.15 135.64 M164.93 136.54 C123.08 132.61, 80.27 132.86, -1.93 136.8 M163.63 134.17 C116.48 136.57, 69.93 136.53, 0.27 135.87 M-1.91 136.14 C0.6 102.85, 0 73.21, -0.35 1.97 M0.53 135.76 C-0.05 97.26, 0.08 59.11, -0.04 -0.8" stroke="#000000" stroke-width="1" fill="none"></path></g><g transform="translate(291.25 419.375) rotate(0 73 10)"><text x="0" y="14" font-family="Virgil, Segoe UI Emoji" font-size="16px" fill="#000000" text-anchor="start" style="white-space: pre;" direction="ltr">Nom de la recette</text></g><g stroke-linecap="round"><g transform="translate(277.5 375.125) rotate(0 -101.27008302711883 -40.030112536954675)"><path d="M-0.41 -1.09 C-34.38 -14.73, -169.3 -67.67, -202.94 -81.01 M1.58 0.95 C-32.67 -12.64, -170.04 -66.44, -204.12 -80.01" stroke="#000000" stroke-width="1" fill="none"></path></g><g transform="translate(277.5 375.125) rotate(0 -101.27008302711883 -40.030112536954675)"><path d="M-175.95 -79.95 C-187.08 -79.22, -198.59 -81.15, -203.32 -79.76 M-174.8 -79.7 C-180.16 -79.05, -186.17 -79.43, -203.93 -80.35" stroke="#000000" stroke-width="1" fill="none"></path></g><g transform="translate(277.5 375.125) rotate(0 -101.27008302711883 -40.030112536954675)"><path d="M-183.48 -60.86 C-191.92 -67.26, -200.6 -76.36, -203.32 -79.76 M-182.33 -60.61 C-186.26 -63.92, -190.7 -68.28, -203.93 -80.35" stroke="#000000" stroke-width="1" fill="none"></path></g></g><g transform="translate(10 273.125) rotate(0 30 30)"><text x="0" y="14" font-family="Virgil, Segoe UI Emoji" font-size="16px" fill="#000000" text-anchor="start" style="white-space: pre;" direction="ltr">Image</text><text x="0" y="34" font-family="Virgil, Segoe UI Emoji" font-size="16px" fill="#000000" text-anchor="start" style="white-space: pre;" direction="ltr">de la</text><text x="0" y="54" font-family="Virgil, Segoe UI Emoji" font-size="16px" fill="#000000" text-anchor="start" style="white-space: pre;" direction="ltr">recette</text></g><g transform="translate(292.5 323.125) rotate(0 76 10)"><text x="0" y="14" font-family="Virgil, Segoe UI Emoji" font-size="16px" fill="#000000" text-anchor="start" style="white-space: pre;" direction="ltr">Type(s) de recette</text></g><g stroke-linecap="round" transform="translate(718.75 316.9999999999998) rotate(0 81.875 67.49999999999994)"><path d="M0.66 -0.33 C59.41 0.89, 117.52 0.27, 161.91 -1 M-0.18 0.85 C41.75 0.45, 85.1 0.74, 162.79 0.75 M163.73 0.87 C164.16 45.48, 164.76 93.88, 165.05 135.63 M163.79 0.42 C164.24 34.25, 163.72 67.86, 164.12 135.25 M164.15 134.7 C124.24 136.92, 83.16 136.27, -0.85 134.72 M163.78 134.82 C116.37 133.68, 67.42 134.14, -0.56 134.42 M0 134.93 C-0.72 87.28, -0.41 36.37, -1.46 -1.29 M0.8 134.03 C-1.1 86.08, -0.36 38.38, -0.7 0.96" stroke="#000000" stroke-width="1" fill="none"></path></g><g stroke-linecap="round" transform="translate(720 470.7500000000002) rotate(0 81.875 67.49999999999994)"><path d="M-0.33 1.57 C60.33 1.32, 120.57 -2.38, 162.75 -0.79 M0.85 -0.88 C32.45 0.12, 65.6 -0.66, 164.5 0.46 M164.62 -0.46 C163.67 49.3, 165.38 99.61, 164.38 133.97 M164.17 0.26 C163.61 42.52, 163.69 85.92, 164 134.43 M163.45 135.33 C112.06 134.41, 57.97 134.48, -0.28 134.89 M163.57 135.85 C116.99 135.16, 70.87 134.48, -0.58 135.66 M-0.07 133.2 C1.31 103.8, -0.15 74.13, -1.29 1.12 M-0.97 135.25 C-0.48 82, -0.13 26.31, 0.96 0.5" stroke="#000000" stroke-width="1" fill="none"></path></g><g stroke-linecap="round" transform="translate(252.5 202.625) rotate(0 321.5 19.375)"><path d="M-0.46 0.03 C129.43 0.44, 259.41 -0.06, 643.08 -0.32 M0.03 -0.33 C149.8 2.19, 299.56 2.48, 643.05 0.3 M643.46 -0.32 C643.98 12.43, 641.86 25.51, 644.4 40.22 M642.3 0.82 C642.93 10.05, 642.04 21.13, 642.37 38.82 M643.17 38.08 C497.44 38.58, 350.86 37.98, -0.34 38.54 M643.36 38.35 C481 37.94, 318.82 38, 0.37 38.37 M1.64 39.12 C-0.43 29.06, 0.59 15.11, 0.09 1.34 M-0.27 37.89 C-0.09 25.73, 0.68 11.99, 0.14 -0.67" stroke="#000000" stroke-width="1" fill="none"></path></g><g transform="translate(257.5 212) rotate(0 316.5 10)"><text x="316.5" y="14" font-family="Virgil, Segoe UI Emoji" font-size="16px" fill="#000000" text-anchor="middle" style="white-space: pre;" direction="ltr">Menu de navigation</text></g></svg>