<svg version="1.1" xmlns="http://www.w3.org/2000/svg" viewBox="0 0 754.25 1068" width="754.25" height="1068">
  <!-- svg-source:excalidraw -->
  
  <defs>
    <style>
      @font-face {
        font-family: "Virgil";
        src: url("https://excalidraw.com/Virgil.woff2");
      }
      @font-face {
        font-family: "Cascadia";
        src: url("https://excalidraw.com/Cascadia.woff2");
      }
    </style>
  </defs>
  <rect x="0" y="0" width="754.25" height="1068" fill="#ffffff"></rect><g stroke-linecap="round" transform="translate(10 10) rotate(0 367.125 524)"><path d="M0.34 -0.27 C287.85 -2.25, 575.32 -2.5, 733.59 -0.55 M0.09 0.39 C282.22 0.31, 564.04 0.51, 733.87 0.3 M733.78 -0.56 C733.9 404.07, 734.27 807.19, 734.55 1048.28 M734.45 0.01 C736.87 391.52, 736.72 783.2, 733.96 1048.1 M734.98 1048.25 C471.91 1045.36, 208.91 1045.47, -0.46 1048.77 M734.24 1048.02 C455.48 1047.13, 177.41 1047.02, 0.03 1047.74 M0.57 1048.13 C1.86 773.83, 1.19 499.16, -0.34 0.67 M-0.26 1047.99 C-3.58 647.87, -3.28 246.96, -0.36 0.33" stroke="#000000" stroke-width="1" fill="none"></path></g><g stroke-linecap="round" transform="translate(318.25 85.5) rotate(0 53 34)"><path d="M0.45 1.25 C37.1 2.45, 73.69 0, 106.34 1.37 M-0.81 -0.55 C24.63 -0.61, 49.88 -0.79, 105.09 0.81 M107.3 -1.94 C107.64 25.52, 104.9 47.06, 104.33 67.42 M105.09 -0.27 C104.48 24.68, 104.49 50.57, 106.13 68.93 M107.76 67.13 C68.09 68.74, 30.32 69.72, 0.79 66.29 M106.7 68.35 C78.68 68.08, 52.26 67.22, -0.77 68.84 M1.16 66.96 C0.82 51.98, 0.58 33.57, -0.21 -0.82 M0.41 67.9 C0.39 49.21, -0.61 29.19, 0.79 -0.11" stroke="#000000" stroke-width="1" fill="none"></path></g><g transform="translate(323.25 107) rotate(0 48 12.5)"><text x="48" y="18" font-family="Virgil, Segoe UI Emoji" font-size="20px" fill="#000000" text-anchor="middle" style="white-space: pre;" direction="ltr">Logo</text></g><g transform="translate(312.25 45.5) rotate(0 60.5 17.5)"><text x="0" y="25" font-family="Virgil, Segoe UI Emoji" font-size="28px" fill="#000000" text-anchor="start" style="white-space: pre;" direction="ltr">WATWIT</text></g><g transform="translate(286.25 172) rotate(0 91 12.5)"><text x="0" y="18" font-family="Virgil, Segoe UI Emoji" font-size="20px" fill="#000000" text-anchor="start" style="white-space: pre;" direction="ltr">Et bwon appétit' !</text></g><g stroke-linecap="round" transform="translate(59.5 202.625) rotate(0 321.5 19.375)"><path d="M-0.46 0.03 C129.43 0.44, 259.41 -0.06, 643.08 -0.32 M0.03 -0.33 C149.8 2.19, 299.56 2.48, 643.05 0.3 M643.46 -0.32 C643.98 12.43, 641.86 25.51, 644.4 40.22 M642.3 0.82 C642.93 10.05, 642.04 21.13, 642.37 38.82 M643.17 38.08 C497.44 38.58, 350.86 37.98, -0.34 38.54 M643.36 38.35 C481 37.94, 318.82 38, 0.37 38.37 M1.64 39.12 C-0.43 29.06, 0.59 15.11, 0.09 1.34 M-0.27 37.89 C-0.09 25.73, 0.68 11.99, 0.14 -0.67" stroke="#000000" stroke-width="1" fill="none"></path></g><g transform="translate(64.5 212) rotate(0 316.5 10)"><text x="316.5" y="14" font-family="Virgil, Segoe UI Emoji" font-size="16px" fill="#000000" text-anchor="middle" style="white-space: pre;" direction="ltr">Menu de navigation</text></g><g stroke-linecap="round" transform="translate(62 275.125) rotate(0 129 96.25)"><path d="M-1.44 0.2 C66.69 1.65, 136.2 -0.81, 259.21 -1.42 M0.1 -0.36 C81.59 -0.88, 163.4 -1.21, 258.77 0.35 M259.65 0.3 C256.92 65.5, 259.46 132.48, 258.68 191.45 M258.39 0.34 C259.96 44.1, 259.95 87.95, 257.23 192.48 M257.96 194.05 C196.99 194.18, 133.63 193.84, 0.9 192.6 M257.25 192.51 C186.54 192.91, 114.33 192.87, -0.16 192.01 M1.78 191.64 C-2.08 152.14, -1.68 113.78, 1 1.71 M-0.3 193.09 C0.12 152.83, -0.16 111.31, -0.16 -0.18" stroke="#000000" stroke-width="1" fill="none"></path></g><g transform="translate(67 361.375) rotate(0 124 10)"><text x="124" y="14" font-family="Virgil, Segoe UI Emoji" font-size="16px" fill="#000000" text-anchor="middle" style="white-space: pre;" direction="ltr">Image de la recette</text></g><g transform="translate(419.5 277.375) rotate(0 91.5 12.5)"><text x="0" y="18" font-family="Virgil, Segoe UI Emoji" font-size="20px" fill="#000000" text-anchor="start" style="white-space: pre;" direction="ltr">Nom de la recette</text></g><g transform="translate(435.75 306.125) rotate(0 76 10)"><text x="0" y="14" font-family="Virgil, Segoe UI Emoji" font-size="16px" fill="#000000" text-anchor="start" style="white-space: pre;" direction="ltr">Type(s) de recette</text></g><g transform="translate(357 346.875) rotate(0 50 10)"><text x="0" y="14" font-family="Virgil, Segoe UI Emoji" font-size="16px" fill="#000000" text-anchor="start" style="white-space: pre;" direction="ltr">Ingrédients :</text></g><g transform="translate(357 379.375) rotate(0 49 40)"><text x="0" y="14" font-family="Virgil, Segoe UI Emoji" font-size="16px" fill="#000000" text-anchor="start" style="white-space: pre;" direction="ltr">Ingrédient 1</text><text x="0" y="34" font-family="Virgil, Segoe UI Emoji" font-size="16px" fill="#000000" text-anchor="start" style="white-space: pre;" direction="ltr">Ingrédient 2</text><text x="0" y="54" font-family="Virgil, Segoe UI Emoji" font-size="16px" fill="#000000" text-anchor="start" style="white-space: pre;" direction="ltr">Ingrédient 3</text><text x="0" y="74" font-family="Virgil, Segoe UI Emoji" font-size="16px" fill="#000000" text-anchor="start" style="white-space: pre;" direction="ltr">Ingrédient 4</text></g><g transform="translate(514.5 376.875) rotate(0 50 40)"><text x="0" y="14" font-family="Virgil, Segoe UI Emoji" font-size="16px" fill="#000000" text-anchor="start" style="white-space: pre;" direction="ltr">Ingrédient 5</text><text x="0" y="34" font-family="Virgil, Segoe UI Emoji" font-size="16px" fill="#000000" text-anchor="start" style="white-space: pre;" direction="ltr">Ingrédient 6</text><text x="0" y="54" font-family="Virgil, Segoe UI Emoji" font-size="16px" fill="#000000" text-anchor="start" style="white-space: pre;" direction="ltr">Ingrédient 7</text><text x="0" y="74" font-family="Virgil, Segoe UI Emoji" font-size="16px" fill="#000000" text-anchor="start" style="white-space: pre;" direction="ltr">Ingrédient 8</text></g><g transform="translate(89.5 541.875) rotate(0 40 10)"><text x="0" y="14" font-family="Virgil, Segoe UI Emoji" font-size="16px" fill="#000000" text-anchor="start" style="white-space: pre;" direction="ltr">Etape 1 : </text></g><g transform="translate(88.25 570.625) rotate(0 280.5 30)"><text x="0" y="14" font-family="Virgil, Segoe UI Emoji" font-size="16px" fill="#000000" text-anchor="start" style="white-space: pre;" direction="ltr">Lorem ipsum dolor sit amet, consectetur adipiscing elit, sed do eiusmod</text><text x="0" y="34" font-family="Virgil, Segoe UI Emoji" font-size="16px" fill="#000000" text-anchor="start" style="white-space: pre;" direction="ltr">tempor incididunt ut labore et dolore magna aliqua. Ut enim ad minim</text><text x="0" y="54" font-family="Virgil, Segoe UI Emoji" font-size="16px" fill="#000000" text-anchor="start" style="white-space: pre;" direction="ltr">veniam, quis nostrud exercitation ullamco laboris nisi</text></g><g transform="translate(90.75 660.125) rotate(0 43.5 10)"><text x="0" y="14" font-family="Virgil, Segoe UI Emoji" font-size="16px" fill="#000000" text-anchor="start" style="white-space: pre;" direction="ltr">Etape 2 : </text></g><g transform="translate(92 694.375) rotate(0 280.5 30)"><text x="0" y="14" font-family="Virgil, Segoe UI Emoji" font-size="16px" fill="#000000" text-anchor="start" style="white-space: pre;" direction="ltr">Lorem ipsum dolor sit amet, consectetur adipiscing elit, sed do eiusmod</text><text x="0" y="34" font-family="Virgil, Segoe UI Emoji" font-size="16px" fill="#000000" text-anchor="start" style="white-space: pre;" direction="ltr">tempor incididunt ut labore et dolore magna aliqua. Ut enim ad minim</text><text x="0" y="54" font-family="Virgil, Segoe UI Emoji" font-size="16px" fill="#000000" text-anchor="start" style="white-space: pre;" direction="ltr">veniam, quis nostrud exercitation ullamco laboris nisi</text></g><g transform="translate(90.75 846.8750000000001) rotate(0 57.5 20)"><text x="0" y="14" font-family="Virgil, Segoe UI Emoji" font-size="16px" fill="#000000" text-anchor="start" style="white-space: pre;" direction="ltr">Commentaires :</text><text x="0" y="34" font-family="Virgil, Segoe UI Emoji" font-size="16px" fill="#000000" text-anchor="start" style="white-space: pre;" direction="ltr"></text></g><g stroke-linecap="round" transform="translate(93.25 872.6250000000001) rotate(0 283.75 35)"><path d="M0.75 -0.05 C203.49 -2.09, 405 -1.75, 567.76 -0.48 M-0.28 -0.31 C154.8 -0.22, 310.07 0.01, 567.66 -0.29 M568.47 -0.79 C568.96 19.82, 566.85 45.1, 567.63 69.36 M567.87 -0.81 C568.45 22.9, 567.54 47.4, 567.63 70.79 M566.84 70.63 C364.86 68.51, 162.02 68.25, -0.43 69.81 M567.78 70.38 C400.67 69.29, 233.91 69.34, -0.04 69.8 M1.76 71.71 C0.77 46.11, 0.71 21.31, -1.57 1.86 M-0.29 70.16 C0.67 48.51, 0.6 25.46, -0.26 0.29" stroke="#000000" stroke-width="1" fill="none"></path></g><g transform="translate(103.25 875.6250000000001) rotate(0 247.5 30)"><text x="0" y="14" font-family="Virgil, Segoe UI Emoji" font-size="16px" fill="#000000" text-anchor="start" style="white-space: pre;" direction="ltr">J. Doe le 01/02/03 :</text><text x="0" y="34" font-family="Virgil, Segoe UI Emoji" font-size="16px" fill="#000000" text-anchor="start" style="white-space: pre;" direction="ltr">Lorem ipsum dolor sit amet, consectetur adipiscing elit, sed do</text><text x="0" y="54" font-family="Virgil, Segoe UI Emoji" font-size="16px" fill="#000000" text-anchor="start" style="white-space: pre;" direction="ltr">eiusmo !</text></g><g stroke-linecap="round"><g transform="translate(273.25 892.6250000000001) rotate(0 -87.80782089580782 1.4875702592963762)"><path d="M-0.78 -0.56 C-30.16 -0.16, -146.64 1.71, -175.87 2.6 M1.01 1.76 C-28.53 2.25, -146.96 3.32, -176.62 3.54" stroke="#000000" stroke-width="1" fill="none"></path></g></g><g stroke-linecap="round" transform="translate(94.5 961.3750000000001) rotate(0 283.75 35)"><path d="M-0.75 0.09 C173.57 0.9, 348.31 0.94, 566.99 0.75 M-0.07 0.31 C155.05 -1.49, 309.86 -0.98, 567.14 -0.08 M568.78 -1.43 C568.89 26.16, 566.51 52.62, 566.04 68.63 M568.41 -0.36 C567.14 27.97, 568.31 53.48, 567.82 70.5 M566.98 70.55 C390.23 70.3, 211.94 69.46, -0.59 70.19 M567.83 70.08 C399.8 70.99, 232.39 71.22, 0.1 70.21 M-1.24 69.61 C-0.25 51.3, 0.18 34.86, -0.51 1.51 M-0.18 69.94 C0.27 43.99, -0.66 17.61, 0.97 -0.84" stroke="#000000" stroke-width="1" fill="none"></path></g><g transform="translate(104.5 964.3750000000001) rotate(0 247.5 30)"><text x="0" y="14" font-family="Virgil, Segoe UI Emoji" font-size="16px" fill="#000000" text-anchor="start" style="white-space: pre;" direction="ltr">J. Doe le 01/02/03 :</text><text x="0" y="34" font-family="Virgil, Segoe UI Emoji" font-size="16px" fill="#000000" text-anchor="start" style="white-space: pre;" direction="ltr">Lorem ipsum dolor sit amet, consectetur adipiscing elit, sed do</text><text x="0" y="54" font-family="Virgil, Segoe UI Emoji" font-size="16px" fill="#000000" text-anchor="start" style="white-space: pre;" direction="ltr">eiusmo !</text></g><g stroke-linecap="round"><g transform="translate(274.5 981.3750000000001) rotate(0 -88.50022486075758 1.6094832214946564)"><path d="M0.13 -1.17 C-29.26 -0.45, -147.6 2.47, -177.13 3.16 M-1.26 0.83 C-30.21 1.8, -145.99 3.88, -174.88 4.39" stroke="#000000" stroke-width="1" fill="none"></path></g></g></svg>