<svg version="1.1" xmlns="http://www.w3.org/2000/svg" viewBox="0 0 748.875 1342.875" width="748.875" height="1342.875">
  <!-- svg-source:excalidraw -->
  
  <defs>
    <style>
      @font-face {
        font-family: "Virgil";
        src: url("https://excalidraw.com/Virgil.woff2");
      }
      @font-face {
        font-family: "Cascadia";
        src: url("https://excalidraw.com/Cascadia.woff2");
      }
    </style>
  </defs>
  <rect x="0" y="0" width="748.875" height="1342.875" fill="#ffffff"></rect><g stroke-linecap="round" transform="translate(10 73.625) rotate(0 204 629.625)"><path d="M0.47 -0.38 C159.83 -1.48, 319.12 -1.83, 407.09 -0.76 M0.12 0.54 C156.97 0.04, 313.39 0.33, 407.48 0.42 M407.53 -0.56 C407.66 485.49, 408.04 970.02, 408.3 1259.53 M408.2 0.01 C411.09 470.47, 410.94 941.1, 407.71 1259.35 M409.01 1259.6 C262.35 1257, 115.78 1257.15, -0.64 1260.32 M407.98 1259.27 C252.94 1258.5, 98.86 1258.34, 0.04 1258.88 M0.57 1259.38 C2.19 929.76, 1.53 599.77, -0.34 0.67 M-0.26 1259.24 C-4.26 778.39, -3.96 296.77, -0.36 0.33" stroke="#000000" stroke-width="1" fill="none"></path></g><g stroke-linecap="round" transform="translate(118.25 162.875) rotate(0 53 34)"><path d="M0.45 1.25 C37.1 2.45, 73.69 0, 106.34 1.37 M-0.81 -0.55 C24.63 -0.61, 49.88 -0.79, 105.09 0.81 M107.3 -1.94 C107.64 25.52, 104.9 47.06, 104.33 67.42 M105.09 -0.27 C104.48 24.68, 104.49 50.57, 106.13 68.93 M107.76 67.13 C68.09 68.74, 30.32 69.72, 0.79 66.29 M106.7 68.35 C78.68 68.08, 52.26 67.22, -0.77 68.84 M1.16 66.96 C0.82 51.98, 0.58 33.57, -0.21 -0.82 M0.41 67.9 C0.39 49.21, -0.61 29.19, 0.79 -0.11" stroke="#000000" stroke-width="1" fill="none"></path></g><g transform="translate(123.25 184.375) rotate(0 48 12.5)"><text x="48" y="18" font-family="Virgil, Segoe UI Emoji" font-size="20px" fill="#000000" text-anchor="middle" style="white-space: pre;" direction="ltr">Logo</text></g><g transform="translate(112.25 122.875) rotate(0 60.5 17.5)"><text x="0" y="25" font-family="Virgil, Segoe UI Emoji" font-size="28px" fill="#000000" text-anchor="start" style="white-space: pre;" direction="ltr">WATWIT</text></g><g transform="translate(86.25 249.375) rotate(0 91 12.5)"><text x="0" y="18" font-family="Virgil, Segoe UI Emoji" font-size="20px" fill="#000000" text-anchor="start" style="white-space: pre;" direction="ltr">Et bwon appétit' !</text></g><g stroke-linecap="round" transform="translate(88.25 355) rotate(0 129 96.25)"><path d="M-1.44 0.2 C66.69 1.65, 136.2 -0.81, 259.21 -1.42 M0.1 -0.36 C81.59 -0.88, 163.4 -1.21, 258.77 0.35 M259.65 0.3 C256.92 65.5, 259.46 132.48, 258.68 191.45 M258.39 0.34 C259.96 44.1, 259.95 87.95, 257.23 192.48 M257.96 194.05 C196.99 194.18, 133.63 193.84, 0.9 192.6 M257.25 192.51 C186.54 192.91, 114.33 192.87, -0.16 192.01 M1.78 191.64 C-2.08 152.14, -1.68 113.78, 1 1.71 M-0.3 193.09 C0.12 152.83, -0.16 111.31, -0.16 -0.18" stroke="#000000" stroke-width="1" fill="none"></path></g><g transform="translate(93.25 441.25) rotate(0 124 10)"><text x="124" y="14" font-family="Virgil, Segoe UI Emoji" font-size="16px" fill="#000000" text-anchor="middle" style="white-space: pre;" direction="ltr">Image de la recette</text></g><g transform="translate(127 289.75) rotate(0 91.5 12.5)"><text x="0" y="18" font-family="Virgil, Segoe UI Emoji" font-size="20px" fill="#000000" text-anchor="start" style="white-space: pre;" direction="ltr">Nom de la recette</text></g><g transform="translate(143.25 318.5) rotate(0 76 10)"><text x="0" y="14" font-family="Virgil, Segoe UI Emoji" font-size="16px" fill="#000000" text-anchor="start" style="white-space: pre;" direction="ltr">Type(s) de recette</text></g><g transform="translate(158.25 579.25) rotate(0 50 10)"><text x="0" y="14" font-family="Virgil, Segoe UI Emoji" font-size="16px" fill="#000000" text-anchor="start" style="white-space: pre;" direction="ltr">Ingrédients :</text></g><g transform="translate(89.5 611.75) rotate(0 49 40)"><text x="0" y="14" font-family="Virgil, Segoe UI Emoji" font-size="16px" fill="#000000" text-anchor="start" style="white-space: pre;" direction="ltr">Ingrédient 1</text><text x="0" y="34" font-family="Virgil, Segoe UI Emoji" font-size="16px" fill="#000000" text-anchor="start" style="white-space: pre;" direction="ltr">Ingrédient 2</text><text x="0" y="54" font-family="Virgil, Segoe UI Emoji" font-size="16px" fill="#000000" text-anchor="start" style="white-space: pre;" direction="ltr">Ingrédient 3</text><text x="0" y="74" font-family="Virgil, Segoe UI Emoji" font-size="16px" fill="#000000" text-anchor="start" style="white-space: pre;" direction="ltr">Ingrédient 4</text></g><g transform="translate(245.75 611.75) rotate(0 50 40)"><text x="0" y="14" font-family="Virgil, Segoe UI Emoji" font-size="16px" fill="#000000" text-anchor="start" style="white-space: pre;" direction="ltr">Ingrédient 5</text><text x="0" y="34" font-family="Virgil, Segoe UI Emoji" font-size="16px" fill="#000000" text-anchor="start" style="white-space: pre;" direction="ltr">Ingrédient 6</text><text x="0" y="54" font-family="Virgil, Segoe UI Emoji" font-size="16px" fill="#000000" text-anchor="start" style="white-space: pre;" direction="ltr">Ingrédient 7</text><text x="0" y="74" font-family="Virgil, Segoe UI Emoji" font-size="16px" fill="#000000" text-anchor="start" style="white-space: pre;" direction="ltr">Ingrédient 8</text></g><g transform="translate(187 721.75) rotate(0 40 10)"><text x="0" y="14" font-family="Virgil, Segoe UI Emoji" font-size="16px" fill="#000000" text-anchor="start" style="white-space: pre;" direction="ltr">Etape 1 : </text></g><g transform="translate(55.75 768) rotate(0 173 50)"><text x="0" y="14" font-family="Virgil, Segoe UI Emoji" font-size="16px" fill="#000000" text-anchor="start" style="white-space: pre;" direction="ltr">Lorem ipsum dolor sit amet, consectetur</text><text x="0" y="34" font-family="Virgil, Segoe UI Emoji" font-size="16px" fill="#000000" text-anchor="start" style="white-space: pre;" direction="ltr">adipiscing elit, sed do eiusmod tempor</text><text x="0" y="54" font-family="Virgil, Segoe UI Emoji" font-size="16px" fill="#000000" text-anchor="start" style="white-space: pre;" direction="ltr">incididunt ut labore et dolore magna aliqua.</text><text x="0" y="74" font-family="Virgil, Segoe UI Emoji" font-size="16px" fill="#000000" text-anchor="start" style="white-space: pre;" direction="ltr">Ut enim ad minim veniam, quis nostrud</text><text x="0" y="94" font-family="Virgil, Segoe UI Emoji" font-size="16px" fill="#000000" text-anchor="start" style="white-space: pre;" direction="ltr">exercitation ullamco laboris nisi</text></g><g transform="translate(179.5 893.75) rotate(0 43.5 10.000000000000057)"><text x="0" y="14" font-family="Virgil, Segoe UI Emoji" font-size="16px" fill="#000000" text-anchor="start" style="white-space: pre;" direction="ltr">Etape 2 : </text></g><g transform="translate(160.75 1133) rotate(0 57.5 20)"><text x="0" y="14" font-family="Virgil, Segoe UI Emoji" font-size="16px" fill="#000000" text-anchor="start" style="white-space: pre;" direction="ltr">Commentaires :</text><text x="0" y="34" font-family="Virgil, Segoe UI Emoji" font-size="16px" fill="#000000" text-anchor="start" style="white-space: pre;" direction="ltr"></text></g><g stroke-linecap="round" transform="translate(55.75 1171.25) rotate(0 166.875 35)"><path d="M1.28 -0.09 C120.5 -2.04, 237.64 -1.47, 334.19 -0.81 M-0.48 -0.53 C90.97 -0.15, 182.75 0.24, 334.03 -0.49 M334.72 -0.79 C335.21 19.82, 333.1 45.1, 333.88 69.36 M334.12 -0.81 C334.7 22.9, 333.79 47.4, 333.88 70.79 M332.63 71.07 C214.42 69, 94.76 68.55, -0.72 69.68 M334.22 70.64 C235.46 69.34, 137.29 69.43, -0.07 69.67 M1.76 71.71 C0.77 46.11, 0.71 21.31, -1.57 1.86 M-0.29 70.16 C0.67 48.51, 0.6 25.46, -0.26 0.29" stroke="#000000" stroke-width="1" fill="none"></path></g><g transform="translate(65.75 1174.25) rotate(0 159 30)"><text x="0" y="14" font-family="Virgil, Segoe UI Emoji" font-size="16px" fill="#000000" text-anchor="start" style="white-space: pre;" direction="ltr">J. Doe le 01/02/03 :</text><text x="0" y="34" font-family="Virgil, Segoe UI Emoji" font-size="16px" fill="#000000" text-anchor="start" style="white-space: pre;" direction="ltr">Lorem ipsum dolor sit amet, consectetur</text><text x="0" y="54" font-family="Virgil, Segoe UI Emoji" font-size="16px" fill="#000000" text-anchor="start" style="white-space: pre;" direction="ltr">adipiscing elit, sed do eiusmo !</text></g><g stroke-linecap="round"><g transform="translate(235.75 1191.25) rotate(0 -87.80782089580782 1.4875702592963762)"><path d="M-0.78 -0.56 C-30.16 -0.16, -146.64 1.71, -175.87 2.6 M1.01 1.76 C-28.53 2.25, -146.96 3.32, -176.62 3.54" stroke="#000000" stroke-width="1" fill="none"></path></g></g><g transform="translate(606.125 155.125) rotate(0 46 20)"><text x="0" y="14" font-family="Virgil, Segoe UI Emoji" font-size="16px" fill="#000000" text-anchor="start" style="white-space: pre;" direction="ltr">Mes favoris</text><text x="0" y="34" font-family="Virgil, Segoe UI Emoji" font-size="16px" fill="#000000" text-anchor="start" style="white-space: pre;" direction="ltr">Mon compte</text></g><g transform="translate(582.875 40.625) rotate(0 75 30)"><text x="0" y="14" font-family="Virgil, Segoe UI Emoji" font-size="16px" fill="#000000" text-anchor="start" style="white-space: pre;" direction="ltr">Accueil</text><text x="0" y="34" font-family="Virgil, Segoe UI Emoji" font-size="16px" fill="#000000" text-anchor="start" style="white-space: pre;" direction="ltr">Dernières recettes</text><text x="0" y="54" font-family="Virgil, Segoe UI Emoji" font-size="16px" fill="#000000" text-anchor="start" style="white-space: pre;" direction="ltr">Type de repas</text></g><g stroke-linecap="round" transform="translate(317.625 168.75) rotate(0 25.625 21.25)"><path d="M0.74 1.49 C12.72 -1.78, 29.64 -1.33, 49.86 -1.55 M0.69 -0.74 C12.16 -1.17, 25.9 -0.19, 51.99 0.6 M49.68 1.19 C51.6 9.59, 50.65 22.02, 49.27 43.51 M50.66 0.04 C51.45 12.66, 50.93 23.95, 51.12 41.51 M50.87 40.52 C41.29 43.33, 26.02 41.23, -1.27 41.23 M52.09 43.14 C38.83 41.72, 25.48 42.77, -0.68 42.44 M0.59 42.41 C-0.65 32.19, -0.37 19.14, -0.37 -1.48 M0.2 43.07 C0.17 24.96, -0.43 9.41, 0.11 -0.19" stroke="#000000" stroke-width="1" fill="none"></path></g><g stroke-linecap="round"><g transform="translate(325.125 178.75) rotate(0 15.338888497715857 -0.08474584445357891)"><path d="M0.44 0.89 C5.18 0.71, 24.11 -0.78, 29.18 -1.06 M-0.79 0.32 C4.27 0.25, 26.24 -0.05, 31.46 -0.08" stroke="#000000" stroke-width="1" fill="none"></path></g></g><g stroke-linecap="round"><g transform="translate(326.375 191.25) rotate(0 15.497170490724955 0.2739660491282052)"><path d="M0.89 -0.82 C5.71 -0.74, 24.22 0.89, 28.94 0.89 M-0.1 1.37 C5.08 1.07, 25.8 -0.55, 31.09 -0.77" stroke="#000000" stroke-width="1" fill="none"></path></g></g><g stroke-linecap="round"><g transform="translate(325.125 200) rotate(0 15.033342381566797 -0.07501013629419617)"><path d="M-0.82 -1.06 C4.26 -1.34, 25.89 -0.82, 30.89 -0.8 M0.95 0.99 C5.91 0.77, 25.29 0.5, 30.4 0.32" stroke="#000000" stroke-width="1" fill="none"></path></g></g><g stroke-linecap="round"><g transform="translate(381.375 196.16660007189944) rotate(0 88.34166501214264 -49.3067927097342)"><path d="M-1.06 0.89 C28.03 -15.56, 146.06 -82.82, 175.45 -99.5 M0.58 0.3 C29.98 -15.94, 148.22 -81.99, 177.75 -98.4" stroke="#000000" stroke-width="1" fill="none"></path></g><g transform="translate(381.375 196.16660007189944) rotate(0 88.34166501214264 -49.3067927097342)"><path d="M159.59 -77.04 C164.23 -85.58, 172.1 -90.99, 178.46 -97.02 M157.71 -75.72 C163.51 -80.04, 166.92 -86.02, 177.11 -99.18" stroke="#000000" stroke-width="1" fill="none"></path></g><g transform="translate(381.375 196.16660007189944) rotate(0 88.34166501214264 -49.3067927097342)"><path d="M149.6 -94.97 C157.86 -96.71, 169.47 -95.4, 178.46 -97.02 M147.72 -93.65 C155.6 -93.82, 161.26 -95.76, 177.11 -99.18" stroke="#000000" stroke-width="1" fill="none"></path></g></g><g stroke-linecap="round" transform="translate(571.375 10) rotate(0 83.75 106.25)"><path d="M-1.33 -1.39 C37.27 -2.1, 79.19 -0.52, 168.88 -1.49 M-0.01 0.74 C34.24 0.4, 67.02 0.05, 166.72 0.59 M166.5 -1.74 C166.53 68.43, 164.23 136.18, 166.47 212.57 M167.03 -0.11 C167.42 74.74, 168.44 150.06, 167.33 211.63 M166.6 211.23 C100.08 210.25, 35.36 210.79, 1.68 213.77 M167.88 211.82 C109.31 212.1, 51.54 212.45, 0.29 212.46 M-1.26 212.18 C-1.91 155.98, -1.64 95.1, 0.35 1 M0.47 212.59 C1.18 149.96, 0.88 89.09, -0.64 0.41" stroke="#000000" stroke-width="1" fill="none"></path></g><g stroke-linecap="round"><g transform="translate(582.625 136.25) rotate(0 68.37148435016627 1.206066876673134)"><path d="M-0.8 -0.83 C21.93 -0.65, 112.32 1.35, 135.32 1.98 M0.98 1.35 C24.18 1.61, 114.89 3.33, 137.54 3.24" stroke="#000000" stroke-width="1" fill="none"></path></g></g><g transform="translate(52.75 932.5000000000001) rotate(0 173 50)"><text x="0" y="14" font-family="Virgil, Segoe UI Emoji" font-size="16px" fill="#000000" text-anchor="start" style="white-space: pre;" direction="ltr">Lorem ipsum dolor sit amet, consectetur</text><text x="0" y="34" font-family="Virgil, Segoe UI Emoji" font-size="16px" fill="#000000" text-anchor="start" style="white-space: pre;" direction="ltr">adipiscing elit, sed do eiusmod tempor</text><text x="0" y="54" font-family="Virgil, Segoe UI Emoji" font-size="16px" fill="#000000" text-anchor="start" style="white-space: pre;" direction="ltr">incididunt ut labore et dolore magna aliqua.</text><text x="0" y="74" font-family="Virgil, Segoe UI Emoji" font-size="16px" fill="#000000" text-anchor="start" style="white-space: pre;" direction="ltr">Ut enim ad minim veniam, quis nostrud</text><text x="0" y="94" font-family="Virgil, Segoe UI Emoji" font-size="16px" fill="#000000" text-anchor="start" style="white-space: pre;" direction="ltr">exercitation ullamco laboris nisi</text></g><g stroke-linecap="round" transform="translate(53.875 1252.5) rotate(0 166.875 35)"><path d="M0.65 -0.24 C125.92 -0.8, 248.62 -0.45, 333.03 1.11 M-0.33 -0.26 C123.95 -0.88, 247.94 -0.86, 333.93 -0.5 M333.01 -0.89 C333.96 16.92, 334.65 32.26, 332.67 69.7 M334.71 0.09 C332.82 25.98, 334 50.83, 333.66 69.34 M333.36 71.07 C212.13 69.51, 89.29 69.77, 0.04 70.18 M334.2 70.48 C218.11 70.53, 103.05 70.36, 0.24 70.26 M-0.38 68.52 C1.45 51.76, 0.2 32.76, -0.52 -0.57 M0.32 70.32 C0.54 50.65, 0.4 30.98, -0.1 0.32" stroke="#000000" stroke-width="1" fill="none"></path></g><g transform="translate(63.875 1255.5) rotate(0 159 30)"><text x="0" y="14" font-family="Virgil, Segoe UI Emoji" font-size="16px" fill="#000000" text-anchor="start" style="white-space: pre;" direction="ltr">J. Doe le 01/02/03 :</text><text x="0" y="34" font-family="Virgil, Segoe UI Emoji" font-size="16px" fill="#000000" text-anchor="start" style="white-space: pre;" direction="ltr">Lorem ipsum dolor sit amet, consectetur</text><text x="0" y="54" font-family="Virgil, Segoe UI Emoji" font-size="16px" fill="#000000" text-anchor="start" style="white-space: pre;" direction="ltr">adipiscing elit, sed do eiusmo !</text></g><g stroke-linecap="round"><g transform="translate(233.875 1272.5) rotate(0 -88.67354424665217 2.1796788111794285)"><path d="M-0.21 0.98 C-29.65 1.36, -146.93 2.49, -176.21 2.85 M-1.78 0.45 C-31.42 0.9, -148.02 3.3, -177.14 3.91" stroke="#000000" stroke-width="1" fill="none"></path></g></g></svg>